<?xml version="1.0" encoding="utf-8"?>
<svg width="779px" height="480px" viewbox="0 0 779 480" version="1.1" xmlns:xlink="http://www.w3.org/1999/xlink" xmlns="http://www.w3.org/2000/svg">
  <g id="Group" transform="translate(-79 0)">
    <g id="g10" transform="matrix(-1 0 0 1 858 0)">
      <g id="g12">
        <path d="M797.557 531.704L0 531.704L0 0L797.557 0L797.557 531.704" transform="translate(60.443367 496.26822)" id="path14" fill="#FFFFFF" fill-rule="evenodd" stroke="none" />
        <path d="M684.523 328.1C684.523 328.1 690.228 251.203 657.6 239.572C624.973 227.943 597.467 258.201 597.467 258.201C597.467 258.201 589.357 128.402 512.255 102.405C435.154 76.4069 408.037 184.564 408.037 184.564C408.037 184.564 415.753 35.9612 300.477 4.34075C185.199 -27.2808 169.079 122.349 198.168 178.603C198.168 178.603 146.516 78.2562 98.3577 120.666C50.2002 163.075 93.9275 245.211 93.9275 245.211C93.9275 245.211 63.6086 209.79 19.9508 247.845C-23.7067 285.9 15.3504 328.1 32.7758 328.1L684.523 328.1" transform="translate(22.811552 66.025894)" id="path16" fill="#CCEEF0" fill-rule="evenodd" stroke="none" />
        <path d="M116.805 56.0175C113.052 55.0828 111.421 64.9799 108.743 65.3372C106.066 65.6945 102.598 64.7449 101.931 62.9126C101.679 62.2214 101.139 61.309 100.564 60.4402C100.564 54.2628 99.1323 48.3025 96.5301 42.9471C96.83 42.1134 97.115 41.1287 97.2298 40.1248C97.5244 37.5886 101.016 35.8808 102.972 38.2373C104.929 40.5948 108.774 43.2332 111.61 41.5275C114.447 39.8217 113.226 35.7255 108.282 28.3242C103.338 20.9239 99.7544 18.3951 96.9182 20.1008C94.0811 21.8066 99.0844 28.7857 97.6796 30.6222C96.2749 32.4587 93.6004 33.9837 92.0882 33.2786C91.3959 32.9564 90.2517 32.6937 89.2128 32.5033C85.1856 28.3444 80.2344 25.0255 74.5919 22.8986C74.1496 21.9501 73.5605 20.8803 72.8161 19.9413C70.9636 17.6039 72.4364 13.3088 75.9999 13.6395C79.5623 13.9703 84.9177 12.9728 85.8524 9.22106C86.7861 5.46831 82.3931 3.0937 72.1961 1.0658C62.0001 -0.963187 56.951 -0.0933176 56.0174 3.65944C55.0827 7.41116 64.9798 9.04346 65.3371 11.7211C65.6944 14.3977 64.7448 17.8666 62.9136 18.5334C62.0597 18.8449 60.8697 19.5946 59.8414 20.3071C57.5466 20.338 55.2805 20.5549 53.0675 20.9654C49.5285 21.6204 46.132 22.7689 42.9396 24.3098C42.1814 24.0546 41.3243 23.8248 40.4523 23.7238C37.9171 23.4303 36.2083 19.9392 38.5648 17.9825C40.9223 16.0258 43.5607 12.1795 41.8549 9.34335C40.1492 6.50619 36.053 7.72803 28.6517 12.6729C21.2514 17.6167 18.7226 21.1993 20.4283 24.0365C22.134 26.8736 29.1132 21.8703 30.9497 23.2751C32.7862 24.6799 34.3111 27.3533 33.6061 28.8654C33.3455 29.4259 33.1233 30.2819 32.9478 31.1379C28.64 35.1534 25.1903 40.1365 22.9635 45.8417C22.0001 46.2873 20.9016 46.8871 19.9413 47.6474C17.6039 49.5009 13.3088 48.0281 13.6406 44.4646C13.9703 40.9011 12.9728 35.5458 9.22106 34.6121C5.4683 33.6774 3.09477 38.0704 1.0658 48.2674C-0.963187 58.4633 -0.0933176 63.5124 3.65944 64.4471C7.41116 65.3808 9.04346 55.4836 11.7211 55.1274C14.3988 54.7701 17.8666 55.7187 18.5334 57.5499C18.8258 58.3538 19.5074 59.4555 20.1806 60.4402C20.1668 66.3974 21.4864 72.1536 23.9025 77.3633C23.5707 78.2427 23.241 79.3178 23.1145 80.4184C22.82 82.9547 19.3298 84.6625 17.3732 82.306C15.4154 79.9484 11.5701 77.3112 8.73406 79.0169C5.89687 80.7226 7.11874 84.8188 12.0636 92.2201C17.0074 99.6204 20.59 102.149 23.4272 100.443C26.2644 98.7378 21.261 91.7586 22.6647 89.9211C24.0705 88.0845 26.744 86.5607 28.2561 87.2647C28.9473 87.5869 30.0873 87.8485 31.1231 88.0388C35.2129 92.3882 40.2939 95.8581 46.1107 98.0583C46.5202 98.8739 47.0306 99.7438 47.6474 100.523C49.5009 102.861 48.0281 107.154 44.4646 106.824C40.9022 106.493 35.5469 107.491 34.6121 111.243C33.6785 114.996 38.0714 117.37 48.2674 119.399C58.4644 121.427 63.5124 120.557 64.4471 116.805C65.3808 113.052 55.4847 111.42 55.1274 108.743C54.7701 106.066 55.7197 102.598 57.5509 101.93C58.1996 101.694 59.0429 101.204 59.8606 100.67C66.3527 100.759 72.6173 99.2695 78.2097 96.494C78.8138 96.6705 79.4603 96.8184 80.1132 96.8939C82.6505 97.1874 84.3573 100.679 82.0008 102.634C79.6443 104.592 77.006 108.437 78.7117 111.274C80.4174 114.11 84.5136 112.889 91.9139 107.945C99.3152 103.001 101.844 99.4173 100.138 96.5812C98.4326 93.744 91.4534 98.7474 89.6169 97.3416C87.7804 95.9379 86.2555 93.2634 86.9605 91.7512C87.1498 91.3439 87.3189 90.7782 87.4646 90.171C92.1383 85.912 95.8432 80.5291 98.1093 74.3283C98.9101 73.9232 99.7597 73.4202 100.523 72.8162C102.861 70.9637 107.155 72.4365 106.824 75.999C106.494 79.5624 107.491 84.9178 111.243 85.8515C114.995 86.7862 117.37 82.3932 119.399 72.1962C121.428 62.0003 120.558 56.9512 116.805 56.0175" transform="translate(262.1206 196.43878)" id="path18" fill="#A1DBDC" fill-rule="evenodd" stroke="none" />
        <path d="M76.7364 26.5771C74.1183 26.7526 75.119 33.4882 73.4632 34.274C71.8065 35.062 69.3691 35.1684 68.5577 34.123C68.244 33.7211 67.6889 33.2319 67.1253 32.7821C65.8428 28.8124 63.6958 25.2808 60.9172 22.3734C60.9405 21.7652 60.9214 21.0569 60.7864 20.3732C60.4493 18.6728 62.3506 16.8437 64.1042 17.9603C65.8588 19.0769 68.8917 19.984 70.3709 18.2921C71.8501 16.6002 70.2092 14.2065 65.4771 10.4516C60.7438 6.69562 57.9035 5.80555 56.4242 7.49637C54.945 9.18823 59.6283 12.6592 59.1019 14.1384C58.5755 15.6176 57.1644 17.1574 56.0414 17.016C55.5214 16.9511 54.7186 17.0224 54.0018 17.117C50.5425 15.2709 46.6643 14.1576 42.5861 13.9544C42.1012 13.4291 41.4972 12.8559 40.8155 12.3997C39.1332 11.2746 39.1928 8.19287 41.5642 7.6665C43.9356 7.14011 47.1885 5.38336 47.0131 2.76416C46.8376 0.145015 43.5049 -0.477103 36.4949 0.330043C29.4828 1.13717 26.401 2.74822 26.5775 5.36742C26.753 7.98657 33.4876 6.98485 34.2745 8.64166C35.0614 10.2974 35.1688 12.7358 34.1235 13.5471C33.6365 13.9257 33.025 14.6563 32.5092 15.3315C31.0311 15.8281 29.6114 16.4396 28.2652 17.1649C26.1139 18.3229 24.1583 19.7702 22.4143 21.4291C21.872 21.4227 21.2711 21.4515 20.6862 21.5674C18.9859 21.9045 17.1579 20.0031 18.2734 18.2485C19.391 16.4949 20.2971 13.461 18.6052 11.9829C16.9133 10.5037 14.5206 12.1435 10.7647 16.8767C7.0087 21.6089 6.11863 24.4503 7.81051 25.9284C9.50132 27.4077 12.9734 22.7255 14.4515 23.2508C15.9307 23.7772 17.4716 25.1883 17.3301 26.3124C17.277 26.7281 17.312 27.3279 17.3769 27.9171C15.4256 31.4082 14.2314 35.346 13.9772 39.4976C13.4466 39.9857 12.8638 40.5961 12.4002 41.2894C11.274 42.9717 8.19332 42.9122 7.66587 40.5408C7.13949 38.1694 5.38273 34.9153 2.76356 35.0919C0.145441 35.2673 -0.47664 38.599 0.329411 45.61C1.13653 52.6211 2.74867 55.7029 5.36679 55.5274C7.98596 55.3519 6.98529 48.6163 8.64102 47.8304C10.2967 47.0425 12.7351 46.9361 13.5476 47.9814C13.9038 48.4398 14.5706 49.0066 15.2108 49.5021C16.439 53.3559 18.4882 56.8046 21.1329 59.6694C21.101 60.3064 21.1106 61.0699 21.2573 61.8079C21.5944 63.5083 19.693 65.3373 17.9384 64.2207C16.1849 63.1042 13.152 62.1971 11.6728 63.889C10.1936 65.5809 11.8344 67.9746 16.5666 71.7305C21.2998 75.4854 24.1402 76.3755 25.6194 74.6836C27.0986 72.9928 22.4154 69.5218 22.9417 68.0427C23.4681 66.5634 24.8793 65.0236 26.0022 65.164C26.5158 65.2289 27.3049 65.1597 28.0142 65.0683C31.5628 67.0303 35.5697 68.2181 39.7883 68.4318C40.2221 68.8732 40.7273 69.3294 41.2887 69.7048C42.9721 70.8298 42.9115 73.9116 40.5401 74.438C38.1687 74.9644 34.9157 76.7211 35.0912 79.3403C35.2667 81.9595 38.5983 82.5816 45.6094 81.7744C52.6204 80.9673 55.7032 79.3562 55.5278 76.7371C55.3512 74.1179 48.6167 75.1196 47.8298 73.4639C47.0428 71.8071 46.9365 69.3687 47.9808 68.5573C48.3508 68.2702 48.7921 67.7778 49.2101 67.2632C53.4254 65.9732 57.1644 63.7082 60.2025 60.7519C60.629 60.7413 61.0777 60.7019 61.5158 60.6158C63.2162 60.2787 65.0453 62.179 63.9287 63.9336C62.8121 65.6882 61.905 68.7211 63.5969 70.2003C65.2888 71.6784 67.6825 70.0386 71.4385 65.3065C75.1934 60.5733 76.0835 57.7329 74.3916 56.2537C72.7008 54.7745 69.2298 59.4577 67.7506 58.9314C66.2714 58.405 64.7305 56.9938 64.872 55.8698C64.9102 55.5678 64.9007 55.1669 64.8688 54.7447C67.0062 51.0207 68.2834 46.7692 68.4588 42.2879C68.8927 41.8604 69.3362 41.3649 69.7041 40.8151C70.8302 39.1328 73.9109 39.1923 74.4373 41.5637C74.9637 43.9352 76.7215 47.1892 79.3396 47.0137C81.9588 46.8372 82.5809 43.5056 81.7738 36.4945C80.9666 29.4834 79.3556 26.4017 76.7364 26.5771" transform="translate(87.700806 218.42894)" id="path20" fill="#A1DBDC" fill-rule="evenodd" stroke="none" />
        <path d="M20.6157 54.4424C20.8688 53.2493 21.7972 51.9169 22.6777 51.9094C23.085 51.9062 23.6954 51.768 24.2377 51.6223C27.1621 52.7602 30.3534 53.2525 33.6117 52.9867C33.9956 53.2876 34.4411 53.5939 34.9207 53.8299C36.334 54.5233 36.6052 56.9032 34.8325 57.5529C33.0608 58.2037 30.7352 59.8925 31.1414 61.8917C31.5466 63.8909 34.1774 64.027 39.4955 62.6818C44.8126 61.3366 47.0202 59.7776 46.615 57.7784C46.2099 55.7791 41.1247 57.2456 40.3473 56.0503C39.571 54.8561 39.2371 52.9888 39.9581 52.2561C40.2155 51.9934 40.509 51.5617 40.7812 51.1172C43.8831 49.6901 46.513 47.5654 48.5441 44.9856C48.878 44.9334 49.2289 44.8559 49.5649 44.742C50.84 44.306 52.4446 45.5821 51.7662 47.0486C51.0867 48.515 50.7017 50.9459 52.1575 51.9105C53.6133 52.875 55.2871 51.3639 57.6926 47.3304C60.0969 43.2979 60.4893 41.018 59.0346 40.0524C57.5788 39.0879 55.3882 43.0533 54.194 42.8013C53.0008 42.5482 51.6684 41.6198 51.662 40.7393C51.6598 40.4937 51.6067 40.1725 51.5354 39.8376C52.7849 36.7643 53.3198 33.3859 52.9997 29.9372C53.2975 29.5555 53.5974 29.1174 53.8303 28.6441C54.5247 27.2319 56.9035 26.9597 57.5543 28.7323C58.2041 30.505 59.8928 32.8297 61.893 32.4246C63.8923 32.0183 64.0273 29.3875 62.6821 24.0704C61.338 18.7523 59.7779 16.5446 57.7798 16.9498C55.7795 17.355 57.246 22.4402 56.0518 23.2176C54.8565 23.9949 52.9891 24.3277 52.2565 23.6068C51.9736 23.3292 51.4961 23.0102 51.0155 22.7221C49.6171 19.7955 47.5987 17.2976 45.1593 15.343C45.1146 14.873 45.0263 14.3296 44.8509 13.816C44.4159 12.5409 45.692 10.9363 47.1585 11.6158C48.6249 12.2954 51.0548 12.6803 52.0204 11.2245C52.9849 9.76867 51.4738 8.09377 47.4413 5.68942C43.4078 3.28507 41.1279 2.89159 40.1634 4.34739C39.1978 5.80318 43.1632 7.99383 42.9112 9.18803C42.6581 10.3812 41.7297 11.7136 40.8492 11.72C40.442 11.7242 39.8316 11.8615 39.2892 12.0072C36.434 10.9427 33.332 10.4854 30.1684 10.7491C29.7409 10.395 29.2177 10.0154 28.6445 9.73464C27.2323 9.04131 26.9601 6.66241 28.7328 6.0106C30.5055 5.36083 32.8311 3.67211 32.4249 1.67291C32.0197 -0.326234 29.3889 -0.461319 24.0708 0.882806C18.7527 2.228 16.545 3.78699 16.9513 5.78614C17.3564 7.78534 22.4416 6.32001 23.219 7.5142C23.9953 8.70839 24.3292 10.5758 23.6082 11.3085C23.269 11.6541 22.8702 12.2868 22.5395 12.8632C21.458 13.397 20.4265 14.0053 19.4683 14.6997C17.9307 15.8141 16.5737 17.1306 15.4019 18.5886C14.9818 18.6386 14.5224 18.7236 14.0843 18.8736C12.8093 19.3085 11.2046 18.0324 11.883 16.566C12.5626 15.0995 12.9475 12.6696 11.4928 11.704C10.037 10.7395 8.36209 12.2506 5.95698 16.2831C3.55218 20.3166 3.15968 22.5966 4.61517 23.561C6.07151 24.5266 8.26213 20.5611 9.45527 20.8132C10.6484 21.0663 11.9809 21.9946 11.9883 22.8751C11.9904 23.2006 12.0787 23.6589 12.1893 24.1066C11.0472 26.9969 10.5325 30.1531 10.7654 33.3774C10.407 33.8092 10.021 34.3388 9.73495 34.9204C9.0416 36.3326 6.66276 36.6048 6.01173 34.8332C5.36168 33.0605 3.67267 30.7348 1.67292 31.14C-0.325967 31.5462 -0.461763 34.1771 0.883341 39.4952C2.22792 44.8122 3.7873 47.0199 5.78703 46.6147C7.78571 46.2095 6.32034 41.1243 7.51454 40.347C8.70982 39.5696 10.5761 39.2357 11.3098 39.9577C11.6331 40.2746 12.2084 40.6437 12.754 40.9605C14.0949 43.7955 16.0314 46.2212 18.357 48.1534C18.3964 48.6521 18.4836 49.2508 18.6761 49.8134C19.111 51.0884 17.8349 52.6931 16.3685 52.0136C14.902 51.3351 12.4722 50.9491 11.5066 52.4049C10.5421 53.8618 12.0532 55.5356 16.0867 57.941C20.1191 60.3454 22.3991 60.7378 23.3636 59.282C24.3292 57.8272 20.3637 55.6366 20.6157 54.4424" transform="translate(77.01072 8.132573)" id="path22" fill="#A1DBDC" fill-rule="evenodd" stroke="none" />
        <path d="M30.0845 13.8545C29.1973 13.7046 28.9975 16.0323 28.3826 16.1631C27.7674 16.295 26.9454 16.1376 26.7572 15.724C26.7049 15.6091 26.6127 15.4687 26.5088 15.3262C26.4528 13.6163 25.9958 11.9137 25.1214 10.3569C25.1812 10.1145 25.2311 9.8465 25.241 9.57426C25.2714 8.76288 26.3348 8.13548 27.0132 8.83412C27.6911 9.53279 28.9742 10.2729 29.8304 9.66254C30.6865 9.05108 30.1984 7.78455 28.4495 5.56309C26.7007 3.34055 25.5027 2.62808 24.6467 3.23954C23.7905 3.84993 25.5476 5.93636 25.1484 6.55312C24.7484 7.16991 23.9396 7.71862 23.4432 7.53252C23.2514 7.4602 22.9597 7.41128 22.6727 7.37618C21.4007 6.29152 19.9265 5.53862 18.3676 5.13028C18.2475 4.91867 18.0926 4.68046 17.9023 4.47628C17.4295 3.9669 17.6942 2.94284 18.5271 2.95559C19.3599 2.96835 20.5844 2.63869 20.7336 1.75076C20.8827 0.862835 19.8198 0.39172 17.4162 0.105682C15.0128 -0.18038 13.8568 0.113106 13.7076 1.00108C13.5589 1.88901 15.886 2.08894 16.0172 2.70358C16.1489 3.31825 15.9911 4.14025 15.5781 4.32849C15.387 4.41567 15.1287 4.60922 14.9036 4.79211C13.3354 4.88888 11.7794 5.3249 10.345 6.11287C10.0697 6.03632 9.74353 5.96615 9.41451 5.95444C8.60409 5.9236 7.97689 4.86019 8.6747 4.18172C9.37346 3.5054 10.1137 2.22186 9.50299 1.36476C8.89281 0.508696 7.62543 0.996824 5.40355 2.74613C3.18198 4.49436 2.4696 5.69177 3.08021 6.54888C3.68997 7.40493 5.77691 5.64711 6.39379 6.04696C7.01024 6.4468 7.55896 7.25604 7.37287 7.75267C7.2861 7.98662 7.2308 8.36838 7.19676 8.70867C6.79884 9.18612 6.44111 9.68912 6.13581 10.2176C5.64567 11.0652 5.28263 11.9701 5.03624 12.9028C4.85014 13.0134 4.65075 13.1495 4.47635 13.3122C3.96708 13.7854 2.94355 13.5206 2.956 12.6869C2.96759 11.8542 2.6391 10.6292 1.75137 10.4803C0.863206 10.3325 0.391799 11.3948 0.10553 13.7981C-0.18021 16.2014 0.113075 17.3574 1.00071 17.5073C1.88887 17.6551 2.08826 15.3284 2.70344 15.1976C3.3182 15.0657 4.14075 15.2231 4.32886 15.6368C4.39819 15.7888 4.53569 15.9866 4.68191 16.1738C4.7505 17.7753 5.17044 19.3693 5.95683 20.8379C5.87824 21.1165 5.80764 21.4472 5.79519 21.7801C5.76489 22.5915 4.70148 23.2189 4.02356 22.5202C3.3452 21.8226 2.06253 21.0814 1.20595 21.6918C0.349375 22.3022 0.837906 23.5698 2.58668 25.7923C4.33556 28.0138 5.53264 28.7252 6.38922 28.1159C7.2458 27.5055 5.48819 25.418 5.88782 24.8023C6.28745 24.1855 7.09659 23.6357 7.59299 23.8218C7.81195 23.9037 8.16 23.9569 8.4836 23.992C9.71035 25.0458 11.131 25.7817 12.6309 26.2028C12.7548 26.4293 12.9205 26.692 13.1294 26.9174C13.6017 27.4268 13.3375 28.4508 12.5047 28.4381C11.6718 28.4253 10.4463 28.755 10.2981 29.6419C10.149 30.5298 11.2116 31.002 13.615 31.288C16.0185 31.5741 17.1749 31.2805 17.3236 30.3926C17.4724 29.5047 15.1457 29.3048 15.0145 28.6901C14.8828 28.0754 15.0407 27.2534 15.4535 27.0652C15.6446 26.978 15.9034 26.7845 16.1281 26.6016C17.744 26.525 19.3495 26.0869 20.8279 25.2776C21.0721 25.3393 21.346 25.3903 21.6217 25.3999C22.4321 25.4308 23.0594 26.4942 22.3611 27.1726C21.6633 27.85 20.9226 29.1336 21.5328 29.9896C22.1435 30.8467 23.4105 30.3586 25.6323 28.6082C27.8543 26.86 28.5667 25.6626 27.9565 24.8065C27.3458 23.9494 25.2589 25.7072 24.6425 25.3074C24.0265 24.9086 23.4769 24.0994 23.663 23.6027C23.7299 23.4241 23.7772 23.1593 23.8113 22.8934C24.9727 21.5706 25.7653 20.019 26.1803 18.3782C26.3269 18.2825 26.4756 18.1741 26.6101 18.0475C27.1191 17.5764 28.1422 17.8402 28.1301 18.6728C28.1185 19.5065 28.4467 20.7316 29.3344 20.8804C30.2224 21.0283 30.694 19.9659 30.9805 17.5626C31.2668 15.1593 30.9727 14.0034 30.0845 13.8545" transform="translate(41.926224 335.39432)" id="path24" fill="#A1DBDC" fill-rule="evenodd" stroke="none" />
        <path d="M36.6193 16.8628C35.5389 16.682 35.2953 19.5138 34.5477 19.6733C33.798 19.8329 32.7984 19.6426 32.5687 19.1396C32.5049 18.9991 32.3933 18.828 32.2667 18.6546C32.1976 16.5746 31.6414 14.5009 30.578 12.607C30.6503 12.3114 30.7109 11.9838 30.7227 11.6531C30.7599 10.6663 32.054 9.9038 32.8803 10.7524C33.7055 11.6021 35.2666 12.5038 36.3088 11.7616C37.352 11.0172 36.7575 9.47527 34.6286 6.77096C32.4996 4.06674 31.0427 3.20006 29.9995 3.94232C28.9574 4.68565 31.0959 7.22504 30.6099 7.97586C30.1239 8.72659 29.1392 9.39442 28.5342 9.16791C28.3013 9.08073 27.9461 9.02012 27.5973 8.97758C26.049 7.65789 24.2539 6.74122 22.3568 6.24459C22.2101 5.9862 22.0218 5.69695 21.79 5.44811C21.2147 4.82818 21.5369 3.58287 22.5503 3.59777C23.5648 3.61266 25.0557 3.21282 25.2365 2.13136C25.4183 1.05091 24.1242 0.476665 21.1987 0.128951C18.2733 -0.219859 16.8664 0.137445 16.6846 1.21892C16.5038 2.29828 19.3356 2.54182 19.4962 3.29046C19.6557 4.03909 19.4643 5.03974 18.9613 5.26838C18.7295 5.37475 18.4137 5.6087 18.1404 5.83097C16.2316 5.95111 14.3376 6.48069 12.5926 7.43991C12.2565 7.34523 11.8599 7.26228 11.459 7.24738C10.4721 7.21019 9.70968 5.91601 10.5583 5.0908C11.409 4.2656 12.3097 2.70344 11.5675 1.66132C10.8241 0.619148 9.28114 1.21362 6.5769 3.34254C3.87266 5.47152 3.00595 6.92839 3.74928 7.97051C4.49154 9.0137 7.03205 6.87416 7.78277 7.36012C8.5325 7.84715 9.20138 8.83188 8.97485 9.43589C8.86851 9.72091 8.80153 10.1845 8.76005 10.6003C8.27514 11.182 7.83914 11.7935 7.46801 12.4358C6.87143 13.4672 6.43013 14.5689 6.13024 15.7047C5.90269 15.8398 5.66022 16.0057 5.44754 16.2034C4.82864 16.7777 3.58231 16.4576 3.59723 15.4431C3.6121 14.4286 3.21225 12.9377 2.13185 12.7569C1.05142 12.5751 0.477176 13.8692 0.128367 16.7947C-0.219372 19.7204 0.137956 21.1268 1.21836 21.3088C2.29877 21.4895 2.54124 18.6578 3.28987 18.4983C4.03958 18.3377 5.03918 18.5302 5.26889 19.032C5.35291 19.2181 5.52093 19.4587 5.69851 19.6871C5.78146 21.6352 6.29298 23.5752 7.25003 25.3647C7.15435 25.702 7.06926 26.1049 7.05437 26.5112C7.01713 27.4977 5.72297 28.2612 4.89669 27.4105C4.07149 26.5622 2.51042 25.6604 1.46828 26.4035C0.425065 27.1459 1.01951 28.689 3.14846 31.3941C5.27741 34.0975 6.73428 34.9653 7.77749 34.2217C8.81964 33.4785 6.68005 30.9393 7.16603 30.1882C7.65307 29.4384 8.6378 28.7696 9.2418 28.996C9.50871 29.0949 9.93302 29.1601 10.3265 29.2025C11.8184 30.484 13.5475 31.3804 15.3745 31.893C15.5244 32.1692 15.7265 32.4907 15.9806 32.7641C16.5559 33.3839 16.2348 34.628 15.2203 34.6142C14.2068 34.5993 12.716 34.9993 12.5341 36.0805C12.3533 37.1598 13.6464 37.7343 16.5719 38.0832C19.4973 38.4317 20.9053 38.0744 21.086 36.9932C21.2679 35.9128 18.435 35.6702 18.2755 34.9216C18.1149 34.1727 18.3074 33.1712 18.8093 32.9435C19.0422 32.8372 19.3569 32.602 19.6302 32.3798C21.5976 32.2851 23.5521 31.7513 25.3514 30.7677C25.6491 30.8424 25.982 30.9052 26.317 30.9169C27.3038 30.9529 28.0673 32.2481 27.2177 33.0732C26.368 33.8986 25.4662 35.4608 26.2096 36.5026C26.9529 37.546 28.4948 36.9504 31.2001 34.8215C33.9044 32.6939 34.7711 31.2359 34.0277 30.1936C33.2855 29.1514 30.745 31.2898 29.9942 30.8038C29.2445 30.3178 28.5756 29.3321 28.8022 28.7282C28.883 28.5125 28.9415 28.1902 28.9829 27.8649C30.3962 26.2549 31.3607 24.366 31.8669 22.3689C32.0445 22.2534 32.2253 22.1204 32.389 21.968C33.009 21.3927 34.2553 21.715 34.2394 22.7286C34.2255 23.7417 34.6254 25.2338 35.7058 25.4145C36.7862 25.5957 37.3605 24.3033 37.7093 21.3769C38.057 18.4515 37.6997 17.0435 36.6193 16.8628" transform="translate(233.83557 359.53064)" id="path26" fill="#A1DBDC" fill-rule="evenodd" stroke="none" />
        <path d="M36.6193 16.8628C35.5388 16.682 35.2953 19.5138 34.5477 19.6744C33.798 19.8339 32.7974 19.6425 32.5687 19.1395C32.5049 18.9991 32.3933 18.829 32.2656 18.6556C32.1976 16.5746 31.6414 14.5009 30.578 12.607C30.6503 12.3124 30.7109 11.9838 30.7226 11.6531C30.7599 10.6673 32.054 9.90382 32.8803 10.7535C33.7055 11.6021 35.2666 12.5039 36.3087 11.7605C37.3519 11.0183 36.7575 9.47527 34.6285 6.77103C32.4996 4.06679 31.0427 3.20009 29.9995 3.94234C28.9574 4.68567 31.0959 7.22613 30.6099 7.97584C30.1239 8.72661 29.1392 9.39444 28.5341 9.16898C28.3012 9.08178 27.946 9.02012 27.5973 8.97863C26.0489 7.65789 24.2539 6.74122 22.3568 6.24462C22.21 5.9862 22.0218 5.69802 21.79 5.44813C21.2147 4.82815 21.5369 3.5829 22.5503 3.59779C23.5648 3.61269 25.0557 3.21284 25.2365 2.13241C25.4183 1.052 24.1241 0.476689 21.1987 0.128951C18.2733 -0.219859 16.8664 0.13747 16.6846 1.21895C16.5038 2.29935 19.3356 2.54182 19.4962 3.29046C19.6557 4.03912 19.4643 5.03976 18.9613 5.26841C18.7295 5.37475 18.4137 5.60977 18.1403 5.83201C16.2315 5.95113 14.3376 6.48071 12.5926 7.43991C12.2565 7.34634 11.8599 7.26232 11.459 7.24743C10.4721 7.21126 9.70966 5.9171 10.5583 5.09083C11.409 4.26562 12.3097 2.70349 11.5674 1.66134C10.8241 0.619197 9.28111 1.21364 6.57687 3.34259C3.87261 5.47155 3.00595 6.92841 3.74926 7.97056C4.49154 9.01377 7.032 6.87418 7.78277 7.36122C8.53248 7.8472 9.20138 8.83193 8.97485 9.43594C8.86851 9.71986 8.80153 10.1856 8.76005 10.6004C8.27514 11.182 7.83914 11.7946 7.46801 12.4369C6.87143 13.4684 6.43013 14.569 6.13024 15.7037C5.90267 15.8398 5.66022 16.0067 5.44754 16.2035C4.82862 16.7788 3.58231 16.4576 3.59721 15.4431C3.6121 14.4297 3.21225 12.9377 2.13182 12.757C1.05032 12.5762 0.477151 13.8693 0.128367 16.7947C-0.219372 19.7202 0.137932 21.1281 1.21836 21.3089C2.29879 21.4897 2.54124 18.6578 3.28987 18.4983C4.03958 18.3377 5.03918 18.5302 5.26889 19.0321C5.35291 19.2193 5.52093 19.4586 5.69851 19.6872C5.78146 21.6354 6.29298 23.5761 7.25003 25.3637C7.15435 25.7029 7.06926 26.1059 7.05437 26.5111C7.01713 27.4979 5.72297 28.2615 4.89669 27.4118C4.07149 26.5621 2.51042 25.6614 1.46828 26.4037C0.425065 27.147 1.01951 28.6889 3.14846 31.3932C5.27741 34.0974 6.73428 34.9652 7.77749 34.2219C8.81964 33.4796 6.68005 30.9391 7.16603 30.1884C7.65307 29.4386 8.6378 28.7698 9.2418 28.9963C9.50871 29.0962 9.93302 29.16 10.3265 29.2026C11.8184 30.485 13.5475 31.3804 15.3745 31.8941C15.5244 32.1695 15.7265 32.4907 15.9806 32.7639C16.5559 33.3839 16.2348 34.6292 15.2203 34.6143C14.2068 34.5994 12.716 34.9992 12.5341 36.0796C12.3533 37.1611 13.6464 37.7354 16.5719 38.0831C19.4973 38.4319 20.9053 38.0746 21.086 36.9931C21.2679 35.9127 18.435 35.6702 18.2755 34.9216C18.1149 34.1729 18.3074 33.1723 18.8093 32.9436C19.0422 32.8373 19.3569 32.6023 19.6302 32.38C21.5975 32.2865 23.5521 31.7526 25.3514 30.7679C25.6491 30.8423 25.982 30.9051 26.317 30.9168C27.3038 30.954 28.0673 32.2482 27.2177 33.0734C26.368 33.8997 25.4662 35.4607 26.2096 36.5029C26.9529 37.545 28.4948 36.9516 31.2001 34.8227C33.9044 32.6937 34.7711 31.2358 34.0277 30.1936C33.2855 29.1515 30.745 31.2911 29.9942 30.8041C29.2445 30.3181 28.5756 29.3333 28.8022 28.7283C28.883 28.5124 28.9415 28.1902 28.9829 27.8658C30.3962 26.2559 31.3607 24.3662 31.8669 22.3691C32.0445 22.2542 32.2253 22.1202 32.389 21.9682C33.009 21.3929 34.2553 21.7151 34.2394 22.7285C34.2255 23.743 34.6254 25.2339 35.7058 25.4147C36.7862 25.5965 37.3605 24.3023 37.7093 21.3769C38.057 18.4515 37.6997 17.0446 36.6193 16.8628" transform="translate(190.19223 129.80135)" id="path28" fill="#A1DBDC" fill-rule="evenodd" stroke="none" />
        <path d="M29.0337 13.3694C28.1771 13.2258 27.9844 15.4718 27.3908 15.5983C26.7976 15.7259 26.0043 15.5728 25.8223 15.174C25.772 15.0634 25.6827 14.9283 25.5826 14.7912C25.5286 13.1407 25.0871 11.4967 24.2434 9.99518C24.3015 9.76123 24.3493 9.50177 24.3593 9.23908C24.3879 8.45746 25.4148 7.85134 26.069 8.52554C26.7232 9.1987 27.9616 9.9133 28.7882 9.32417C29.6144 8.73503 29.1433 7.51212 27.4552 5.36829C25.7679 3.22447 24.6118 2.53644 23.7856 3.12556C22.9594 3.71467 24.655 5.72876 24.2691 6.32323C23.884 6.91874 23.1031 7.44832 22.6237 7.26858C22.4389 7.19948 22.1577 7.1516 21.8806 7.1176C20.6527 6.07119 19.2299 5.3449 17.7258 4.95141C17.6099 4.74618 17.46 4.51646 17.2763 4.31868C16.8207 3.82846 17.0758 2.84056 17.8795 2.85225C18.6833 2.86395 19.8655 2.54703 20.0093 1.68994C20.1525 0.832824 19.1274 0.3777 16.8078 0.102275C14.4883 -0.174222 13.3725 0.108676 13.2288 0.965791C13.085 1.82291 15.3303 2.01538 15.4578 2.60876C15.5845 3.20213 15.4324 3.99542 15.0336 4.17727C14.8492 4.26128 14.5992 4.44738 14.3827 4.6239C12.8699 4.71746 11.3678 5.13753 9.98327 5.89787C9.71741 5.82342 9.40254 5.75748 9.08564 5.7458C8.30308 5.71708 7.69821 4.6909 8.37156 4.03583C9.04576 3.38185 9.76027 2.14402 9.17082 1.31669C8.5818 0.490416 7.3593 0.961507 5.21462 2.65021C3.07068 4.33786 2.38329 5.49269 2.97189 6.31897C3.56134 7.14629 5.57469 5.45017 6.16999 5.83617C6.76528 6.22115 7.29444 7.00167 7.11546 7.48125C7.03113 7.70671 6.97797 8.07572 6.94468 8.4043C6.5609 8.86583 6.21571 9.35072 5.92072 9.8601C5.44761 10.6779 5.09786 11.5509 4.86029 12.4506C4.68037 12.559 4.4881 12.6909 4.31944 12.8472C3.82794 13.3024 2.84056 13.0482 2.85226 12.2443C2.86385 11.4403 2.54695 10.2578 1.68995 10.1143C0.832951 9.9707 0.378132 10.9958 0.101858 13.3151C-0.173884 15.6355 0.108983 16.751 0.965559 16.8946C1.82288 17.0381 2.01525 14.7933 2.60842 14.6657C3.20201 14.5391 3.99585 14.6912 4.17737 15.0899C4.24426 15.2378 4.37719 15.4271 4.51798 15.6089C4.58445 17.153 4.98982 18.6917 5.74835 20.1103C5.67231 20.3783 5.60468 20.6973 5.59256 21.0195C5.56353 21.8022 4.53702 22.4073 3.88281 21.7331C3.22817 21.0599 1.98983 20.3453 1.16367 20.9344C0.336553 21.5236 0.808494 22.7465 2.4958 24.8903C4.18397 27.0341 5.33957 27.7222 6.16584 27.1331C6.99243 26.5439 5.2964 24.5298 5.68188 23.9354C6.0678 23.3399 6.84876 22.8103 7.32729 22.99C7.5387 23.0687 7.87516 23.1198 8.18717 23.1527C9.37064 24.1694 10.7414 24.8797 12.1894 25.287C12.309 25.5061 12.4694 25.7602 12.6705 25.9771C13.1262 26.4685 12.8712 27.4553 12.0678 27.4447C11.2635 27.4319 10.0813 27.7499 9.93764 28.6059C9.7943 29.463 10.8198 29.9181 13.1395 30.1946C15.4586 30.4711 16.5748 30.1872 16.7185 29.3301C16.8618 28.474 14.6166 28.2815 14.4899 27.6882C14.3628 27.0937 14.5149 26.3004 14.9137 26.1186C15.0981 26.0356 15.3477 25.8495 15.5641 25.673C17.1235 25.5975 18.6733 25.1754 20.0998 24.3948C20.3362 24.4544 20.5995 24.5022 20.8662 24.5129C21.648 24.5426 22.2536 25.5678 21.5803 26.2228C20.9061 26.8768 20.1916 28.1146 20.7803 28.942C21.3697 29.7682 22.5926 29.2972 24.7365 27.6095C26.8812 25.9208 27.5685 24.766 26.9795 23.9397C26.3901 23.1124 24.3767 24.8085 23.7814 24.4236C23.1865 24.0375 22.6565 23.257 22.836 22.7774C22.9004 22.6062 22.9461 22.351 22.9793 22.0936C24.1 20.8175 24.8648 19.3192 25.2656 17.7358C25.4068 17.6433 25.5502 17.538 25.6802 17.4178C26.1712 16.9616 27.1594 17.2169 27.1474 18.0208C27.1353 18.8247 27.4527 20.0061 28.3092 20.1508C29.1662 20.2933 29.6214 19.2681 29.8977 16.9489C30.1739 14.6295 29.8906 13.513 29.0337 13.3694" transform="translate(0 153.43248)" id="path30" fill="#A1DBDC" fill-rule="evenodd" stroke="none" />
        <path d="M252.288 16.418C252.288 25.4844 195.811 32.8357 126.144 32.8357C56.4755 32.8357 0 25.4844 0 16.418C0 7.35126 56.4755 0 126.144 0C195.811 0 252.288 7.35122 252.288 16.418" transform="translate(402.2984 411.1212)" id="path32" fill="#A1DBDC" fill-rule="evenodd" stroke="none" />
        <path d="M19.4569 42.3996C21.6709 41.065 22.6875 39.7879 22.1345 37.0496C21.5827 34.3103 14.5312 0.816055 12.4341 0.100376C10.337 -0.616373 1.63625 2.65154 0.109187 5.25261C-1.4168 7.85372 13.5369 41.1746 14.9065 42.3645C16.2762 43.5545 17.7767 43.4109 19.4569 42.3996" transform="translate(556.409 8.261018)" id="path34" fill="#F03A55" fill-rule="evenodd" stroke="none" />
        <path d="M9.76215 4.31645C10.0844 7.00261 8.16703 9.44099 5.48194 9.76213C2.79471 10.0844 0.356282 8.16701 0.0351463 5.48193C-0.286038 2.79577 1.62919 0.35734 4.31637 0.0351341C7.00151 -0.286001 9.43994 1.63025 9.7621 4.31645" transform="translate(575.0746 55.18433)" id="path36" fill="#F03A55" fill-rule="evenodd" stroke="none" />
        <path d="M12.1144 43.2296C14.5454 42.348 15.7896 41.291 15.7768 38.4974C15.7651 35.7028 15.3196 1.47804 13.4001 0.369957C11.4807 -0.738074 2.31191 0.785773 0.311643 3.04341C-1.68756 5.29997 6.54319 40.8827 7.65765 42.315C8.77108 43.7475 10.2726 43.8974 12.1144 43.2296" transform="translate(586.6306 0.47316134)" id="path38" fill="#F03A55" fill-rule="evenodd" stroke="none" />
        <path d="M9.78369 5.26627C9.58055 7.96416 7.22832 9.98565 4.53042 9.78256C1.83253 9.57947 -0.188973 7.22716 0.0140683 4.53039C0.218229 1.8325 2.56943 -0.18899 5.26733 0.01405C7.96411 0.217187 9.9857 2.56945 9.78369 5.26622" transform="translate(596.0554 48.84301)" id="path40" fill="#F03A55" fill-rule="evenodd" stroke="none" />
        <path d="M4.65732 42.9031C7.22442 42.5788 8.6696 41.8226 9.27361 39.0939C9.87767 36.3663 16.9919 2.88592 15.3648 1.38233C13.7378 -0.121366 4.45847 -0.657322 2.00942 1.10369C-0.43855 2.86358 -0.259849 39.3853 0.51113 41.0273C1.28211 42.6702 2.7124 43.1477 4.65737 42.9031" transform="translate(617.32965 0)" id="path42" fill="#F03A55" fill-rule="evenodd" stroke="none" />
        <path d="M9.58208 6.33558C8.78876 8.9218 6.0494 10.3754 3.46215 9.58218C0.877002 8.78886 -0.576652 6.04847 0.216622 3.46226C1.00994 0.876039 3.75033 -0.57659 6.33548 0.216731C8.9217 1.01005 10.3754 3.74936 9.58208 6.33558" transform="translate(617.0286 48.28201)" id="path44" fill="#F03A55" fill-rule="evenodd" stroke="none" />
        <path d="M8.30192 0C8.30192 0 -1.63781 8.93064 0.234925 12.9653C2.10756 16.9988 14.0645 29.1 18.6755 26.2184C23.2854 23.3377 15.2173 13.3288 15.2173 13.3288L20.0984 8.35531L8.30192 0" transform="translate(437.78552 406.60788)" id="path46" fill="#1D1E1F" fill-rule="evenodd" stroke="none" />
        <path d="M12.6295 0C12.6295 0 0.509719 8.06811 0.0142143 12.3898C-0.480268 16.7116 12.0531 29.2448 15.2221 28.2367C18.3921 27.2273 12.9166 15.2706 12.9166 15.2706L21.6525 8.06811L12.6294 0" transform="translate(558.79346 374.91312)" id="path48" fill="#1D1E1F" fill-rule="evenodd" stroke="none" />
        <path d="M34.2333 28.5238C56.4967 27.4221 67.9199 20.1207 72.4798 16.2435C67.2947 12.1122 63.8375 9.50793 63.8375 9.50793L15.144 0C15.144 0 8.08723 12.1697 0 27.3923C5.88383 28.3951 16.5732 29.399 34.2333 28.5238" transform="translate(522.5678 251.88417)" id="path50" fill="#4988CF" fill-rule="evenodd" stroke="none" />
        <path d="M64.9733 26.4087C60.2911 26.0482 51.5743 18.5576 51.2872 13.4425C51.1564 11.1296 51.5573 5.48719 52.0347 0C42.8118 14.9079 32.937 27.2329 27.084 35.1956C18.297 47.1527 0 68.0421 0 68.0421C0 68.0421 4.8991 80.432 19.5933 81.873C19.5933 81.873 68.6697 38.0775 75.6329 28.8566C76.9462 27.1201 78.9656 24.0596 81.3806 20.2377C75.4138 23.161 67.7009 26.6182 64.9732 26.4087" transform="translate(440.90115 337.70016)" id="path52" fill="#4988CF" fill-rule="evenodd" stroke="none" />
        <path d="M32.4388 74.5152C24.66 84.8876 17.0236 85.2481 13.2794 82.0069C11.5385 80.5011 7.73261 73.6516 9.67655 72.0661C11.6215 70.4816 14.7915 75.3808 21.7781 73.9388C28.7648 72.4989 41.7309 46.4231 43.5323 46.8548C45.3326 47.2887 40.2186 64.1427 32.4388 74.5152L32.4388 74.5152ZM108.215 12.6152C109.368 10.8404 121.254 19.9878 127.664 27.9836C134.075 35.9793 136.236 38.2838 133.716 40.3734C131.507 42.2024 127.303 38.7878 122.767 31.8735C118.228 24.9582 107.064 14.3911 108.215 12.6152L108.215 12.6152ZM129.105 51.033C138.4 54.1317 147.445 51.4062 151.327 49.8813C149.631 45.9201 147.009 41.6388 143.223 37.0587C132.925 24.603 113.951 8.81353 102.884 0C98.3245 3.87718 86.9013 11.1785 64.6378 12.2802C46.9778 13.1554 36.2883 12.1516 30.4045 11.1488C24.5759 22.121 18.2125 34.6746 13.5665 45.415C9.86159 53.9808 5.39845 62.0945 0.772633 69.5724C0.295141 75.0596 -0.105731 80.7021 0.0250697 83.015C0.312227 88.13 9.02893 95.6206 13.7112 95.9811C16.4388 96.1906 24.1517 92.7335 30.1185 89.8102C40.5155 73.3497 58.2255 42.7501 58.2255 42.7501L68.3108 38.2114C68.3108 38.2114 82.2128 34.2502 91.793 26.2545C91.793 26.2545 116.788 46.9282 129.105 51.033" transform="translate(492.1633 268.12775)" id="path54" fill="#5AB6E9" fill-rule="evenodd" stroke="none" />
        <path d="M83.0161 23.6268C79.1347 25.1518 70.0893 27.8772 60.794 24.7785C48.4777 20.6737 23.4822 0 23.4822 0C13.9019 7.99577 0 11.957 0 11.957C0 11.957 32.1256 29.8212 48.9083 35.2956C48.9083 35.2956 19.5922 62.6677 5.47444 81.3954C5.47444 81.3954 11.2743 92.7761 19.9719 95.8014C19.9719 95.8014 72.8808 57.3464 79.7302 49.994C84.8664 44.4824 88.096 35.4913 83.0161 23.6268" transform="translate(560.47406 294.38223)" id="path56" fill="#4988CF" fill-rule="evenodd" stroke="none" />
        <path d="M25.5833 27.9814C28.1036 25.8918 25.9428 23.5874 19.5314 15.5917C13.1213 7.59589 1.23557 -1.55157 0.0828029 0.223266C-1.06889 1.99915 10.0959 12.5662 14.6344 19.4816C19.1709 26.3959 23.3746 29.8105 25.5833 27.9814" transform="translate(600.29565 280.5197)" id="path58" fill="#79D4F7" fill-rule="evenodd" stroke="none" />
        <path d="M34.3949 0.00530601C32.5935 -0.426452 19.6274 25.6494 12.6408 27.0892C5.65417 28.5312 2.48419 23.6321 0.539218 25.2166C-1.40468 26.8021 2.40124 33.6515 4.14205 35.1573C7.88629 38.3986 15.5226 38.0381 23.3015 27.6656C31.0814 17.2931 36.1953 0.439157 34.3949 0.00530601" transform="translate(501.30066 314.9773)" id="path60" fill="#79D4F7" fill-rule="evenodd" stroke="none" />
        <path d="M7.10572 1.78871C7.10572 1.78871 11.236 -1.37065 14.9824 0.708303C18.7277 2.78728 15.9426 7.56303 15.9426 7.56303C15.9426 7.56303 20.2632 8.2617 20.5525 12.5834C20.8396 16.9051 17.0954 17.9621 17.0954 17.9621C17.0954 17.9621 21.6085 22.8602 17.0954 24.685C12.5812 26.5098 6.91427 25.4527 4.6099 23.5322C2.30437 21.6117 0 17.9621 0 17.9621L7.10567 1.78871" transform="translate(671.11743 203.56706)" id="path62" fill="#E7665C" fill-rule="evenodd" stroke="none" />
        <path d="M0 14.2846L8.06808 10.8274C8.06808 10.8274 5.22134 1.03131 12.1665 0.0710713C19.1116 -0.890241 21.8977 8.1381 22.4741 12.748C23.0504 17.3589 17.2878 16.8783 16.1362 11.7877C16.1362 11.7877 17.1921 21.1787 6.91537 23.1577L4.86789e-05 14.2846" transform="translate(661.3203 201.86584)" id="path64" fill="#F89E84" fill-rule="evenodd" stroke="none" />
        <path d="M0.0723857 12.0239C0.845457 18.5841 5.12142 43.6752 61.6448 38.7048C61.5587 37.2161 61.4077 35.6848 61.1557 34.1684C60.0029 27.2328 55.1049 17.4792 52.8951 16.7104C50.6864 15.9426 46.5571 21.3203 33.0274 23.0494C19.4965 24.7774 13.4224 16.2308 6.21991 3.84104C5.39047 2.41504 4.50889 1.14955 3.60497 0C1.89926 2.84037 -0.442346 7.65017 0.072337 12.024" transform="translate(609.38226 195.02797)" id="path66" fill="#F03A55" fill-rule="evenodd" stroke="none" />
        <path d="M16.9263 22.0126C16.4116 17.6388 18.7532 12.829 20.4589 9.98859C13.5021 1.14318 4.9693 0 4.9693 0L0 7.49065L4.9693 39.1845C4.9693 39.1845 21.5361 60.5058 36.9992 63.5791C52.4622 66.6523 77.7203 61.85 78.0096 60.1219C78.235 58.7714 78.8071 54.0158 78.4987 48.6935C21.9754 53.6638 17.6994 28.5727 16.9263 22.0126" transform="translate(592.5284 185.03934)" id="path68" fill="#B82050" fill-rule="evenodd" stroke="none" />
        <path d="M13.7647 21.9817C15.2131 14.4304 20.0516 5.87747 20.0516 5.87747L5.45313 0C5.45313 0 3.03918 7.16844 0 13.0066C2.28845 16.2096 6.4251 19.9613 13.7648 21.9817" transform="translate(574.4207 151.6164)" id="path70" fill="#E7665C" fill-rule="evenodd" stroke="none" />
        <path d="M22.3007 16.2584C21.584 15.1461 21.1427 13.7531 21.2383 11.9644C21.2894 11.0031 21.4276 9.9971 21.6234 8.97516C14.2837 6.95469 10.147 3.20298 7.85859 0C6.48467 2.64045 4.9821 5.00868 3.51565 6.31878C2.6383 7.10355 1.41223 7.9713 0 8.86563C3.70175 12.6184 10.4193 16.5264 22.3007 16.2584" transform="translate(566.5621 164.62296)" id="path72" fill="#F89E84" fill-rule="evenodd" stroke="none" />
        <path d="M39.4088 7.39281C27.5274 7.66078 20.8098 3.75276 17.1081 0C10.9477 3.8995 1.22393 8.28499 1.22393 8.28499C1.22393 8.28499 0.792201 12.6152 0 18.8489L12.0282 25.0922C12.0282 25.0922 6.62608 58.8756 12.8981 72.4883C17.7291 82.9746 26.9882 90.0367 30.9919 92.7314C36.2548 91.7445 40.2542 90.3632 41.8525 89.152C45.0183 86.7508 52.0921 60.4431 53.165 46.5135C54.238 32.5828 48.0436 11.5507 48.0436 11.5507C48.0436 11.5507 41.9259 11.2998 39.4087 7.39281" transform="translate(549.454 173.4886)" id="path74" fill="#F03A55" fill-rule="evenodd" stroke="none" />
        <path d="M31.1256 53.6394C24.8536 40.0267 30.2557 6.24325 30.2557 6.24325L18.2275 0C16.7728 11.4508 14.0983 29.349 10.6146 38.8016C5.23698 53.4001 -0.141753 60.0262 0.00287206 62.4274C0.147449 64.8286 17.9244 74.4322 31.1256 75.1053C37.6655 75.4382 44.0513 74.8512 49.2195 73.8824C45.2157 71.1878 35.9566 64.1256 31.1256 53.6394" transform="translate(531.22644 192.33754)" id="path76" fill="#B82050" fill-rule="evenodd" stroke="none" />
        <path d="M21.7977 3.64958L21.7977 12.4854C21.7977 12.4854 26.1204 13.35 26.4076 16.519C26.6968 19.689 26.6968 26.1236 24.1031 27.2764C21.5106 28.428 20.6449 27.2764 20.6449 27.2764C20.6449 27.2764 19.3976 31.2131 16.6125 31.1174C13.8264 31.0217 13.5382 27.4678 13.5382 27.4678C13.5382 27.4678 11.64 29.7733 8.74756 29.1969C5.85506 28.6205 6.24006 25.3559 6.24006 25.3559C6.24006 25.3559 3.35822 27.9485 1.0538 26.1237C-1.25168 24.2989 0.668849 13.8307 2.58933 11.7177C4.51093 9.6047 10.6574 9.31652 10.6574 9.31652L13.2671 0L21.7977 3.64961" transform="translate(476.79236 265.18317)" id="path78" fill="#F89E84" fill-rule="evenodd" stroke="none" />
        <path d="M51.3829 26.0516C45.7638 28.9324 37.5458 40.1843 33.8069 38.1532C30.4932 36.3518 37.6245 26.3398 44.6111 21.2971C51.5987 16.2555 61.8989 10.2047 63.6281 13.3737C65.3561 16.5437 57.0009 23.1698 51.3829 26.0516L51.3829 26.0516ZM24.7307 47.2283C22.4975 45.428 28.8386 38.4531 30.6379 40.6022C33.2305 43.6989 26.9649 49.0297 24.7307 47.2283L24.7307 47.2283ZM67.2298 0.16821C60.4112 3.24146 42.547 8.8116 24.2606 30.7093C5.97427 52.607 0 79.4985 0 79.4985C9.70046 94.0013 33.2305 88.815 34.5757 86.6052C35.9209 84.3966 37.9371 66.5324 45.1396 56.833C52.3432 47.1326 62.4274 41.0818 74.5279 25.4465C86.6295 9.81013 70.9953 -1.52898 67.2298 0.16821" transform="translate(483.44815 181.6054)" id="path80" fill="#F03A55" fill-rule="evenodd" stroke="none" />
        <path d="M11.641 8.80155C4.65439 13.8442 -2.47679 23.8562 0.836792 25.6577C4.57573 27.6888 12.7937 16.4368 18.4128 13.5561C24.0308 10.6742 32.3859 4.04812 30.6579 0.878096C28.9288 -2.29088 18.6286 3.75994 11.6409 8.80155" transform="translate(516.4182 194.10094)" id="path82" fill="#F36073" fill-rule="evenodd" stroke="none" />
        <path d="M0.470678 7.03313C2.70485 8.83454 8.97053 3.50369 6.37788 0.407029C4.57861 -1.7421 -1.76252 5.23277 0.470678 7.03313" transform="translate(507.70813 221.80057)" id="path84" fill="#F36073" fill-rule="evenodd" stroke="none" />
        <path d="M65.6165 12.2943C65.6165 12.2943 68.6398 1.12954 59.3488 0.0491049C50.0568 -1.03023 35.4827 16.0406 35.4827 16.0406C35.4827 16.0406 37.1629 10.5662 32.3201 9.84629C27.4773 9.12528 22.0359 25.1168 22.0359 25.1168C22.0359 25.1168 21.4595 21.7309 17.426 21.3715C13.3925 21.011 7.48522 30.1585 7.48522 30.1585C5.79231 27.5595 2.76799 27.9827 0.371031 28.8973C-0.0989644 31.5983 -0.167066 34.8566 0.427353 38.8029C3.30813 57.9623 3.30813 57.9623 3.30813 57.9623L65.6165 32.6245C65.6165 32.6245 77.6361 23.4909 82.2567 11.8593C76.8142 6.74534 65.6165 12.2942 65.6165 12.2942" transform="translate(562.3521 84.28969)" id="path86" fill="#592C26" fill-rule="evenodd" stroke="none" />
        <path d="M51.0543 18.8409C48.8934 16.4642 61.834 4.96553 63.8992 7.1721C66.7321 10.1975 53.2151 21.2176 51.0543 18.8409L51.0543 18.8409ZM32.7913 20.2818C31.3099 18.1922 38.6091 11.2162 39.8959 13.0326C42.5672 16.8055 34.2705 22.3703 32.7913 20.2818L32.7913 20.2818ZM73.7803 19.1738C73.7803 19.1738 88.0779 5.22713 71.3664 0.688491C54.656 -3.84907 46.1551 15.5273 46.1551 15.5273C46.1551 15.5273 50.765 5.0825 38.8081 6.01938C26.8511 6.95625 20.8013 29.3569 20.8013 29.3569C20.8013 29.3569 21.0172 23.019 16.0468 23.5954C11.0764 24.1718 9.70786 38.4332 9.70786 38.4332C9.70786 38.4332 1.81208 40.4408 0 50.858C2.39695 49.9435 5.42128 49.5203 7.11419 52.1192C7.11419 52.1192 13.0214 42.9718 17.0549 43.3323C21.0885 43.6917 21.6648 47.0776 21.6648 47.0776C21.6648 47.0776 27.1063 31.0861 31.949 31.8071C36.7918 32.527 35.1117 38.0014 35.1117 38.0014C35.1117 38.0014 49.6857 20.9305 58.9778 22.0099C68.2688 23.0903 65.2455 34.255 65.2455 34.255C65.2455 34.255 76.4431 28.7062 81.8857 33.8201C82.0378 33.4394 82.1802 33.0566 82.3153 32.6716C86.5647 20.4977 82.6769 15.689 73.7804 19.1738" transform="translate(562.72314 62.32895)" id="path88" fill="#844936" fill-rule="evenodd" stroke="none" />
        <path d="M0.242422 11.9485C2.40324 14.3253 15.9203 3.30515 13.0874 0.279746C11.0222 -1.92683 -1.91844 9.57182 0.242422 11.9485" transform="translate(613.53503 69.2213)" id="path90" fill="#A7624C" fill-rule="evenodd" stroke="none" />
        <path d="M0.197442 7.54791C1.67665 9.63643 9.97336 4.07162 7.30205 0.298658C6.01532 -1.51765 -1.28391 5.45831 0.197442 7.54791" transform="translate(595.31696 75.06284)" id="path92" fill="#A7624C" fill-rule="evenodd" stroke="none" />
        <path d="M0.565018 9.08765C0.687299 8.28369 15.7888 -1.10619 23.4741 0.108226C28.4497 0.894075 34.9089 5.09454 38.8478 7.95939C38.4639 12.3736 37.7429 16.2763 36.5359 18.1309C33.855 22.2516 24.714 32.6974 15.8845 31.567C12.0051 31.0704 6.47008 28.4662 1.34549 25.4876C0.725513 21.3541 -0.182644 14.7163 0.0321768 12.6075C0.353313 9.4673 0.44371 9.89265 0.56492 9.08765" transform="translate(590.6798 139.28961)" id="path94" fill="#79D4F7" fill-rule="evenodd" stroke="none" />
        <path d="M51.7763 0C51.7763 0 53.1459 10.1556 53.097 21.5904C53.063 29.3586 52.2261 33.8547 51.9996 38.338C47.1143 35.0095 38.5731 29.9243 32.7253 30.506C24.1107 31.3621 13.9966 39.3972 10.8723 39.6449C8.70083 39.8172 3.17002 29.9988 0 23.9969C10.5969 16.2308 14.7048 1.80037 14.7048 1.80037C39.6279 3.88889 51.7762 2.43395e-05 51.7762 2.43395e-05" transform="translate(577.7512 105.66121)" id="path96" fill="#F89E84" fill-rule="evenodd" stroke="none" />
        <path d="M2.18949 2.49174C8.58484 -3.7409 15.0865 3.68277 15.0865 3.68277C15.0865 3.68277 15.0865 3.68277 15.0875 3.68277C16.7571 7.31963 19.0615 12.0305 20.6906 14.1382C23.53 17.807 26.8882 21.0408 26.8882 21.0408C26.8882 21.0408 26.4235 28.9228 27.4007 34.931C22.7164 31.9046 19.0083 28.993 18.3022 27.8849C16.6815 25.3423 14.509 15.5674 14.509 15.5674C14.509 15.5674 12.3588 18.2249 8.72299 17.7783C5.0872 17.3306 -4.20597 8.72441 2.18939 2.49174" transform="translate(560.3997 127.25141)" id="path98" fill="#F89E84" fill-rule="evenodd" stroke="none" />
        <path d="M5.6031 11.7315C3.97401 9.62384 1.66954 4.91295 0 1.2761C0.8273 0.984703 1.57705 0.544475 2.26401 0C5.43404 6.00188 10.9648 15.8203 13.1363 15.6481C16.2606 15.4003 26.3747 7.36516 34.9894 6.50911C40.8371 5.92745 49.3784 11.0127 54.2637 14.3411C54.2095 15.4418 54.1329 16.5296 54.0404 17.5909C50.1015 14.7261 43.6424 10.5256 38.6667 9.73974C30.9814 8.52535 15.88 17.9152 15.7576 18.7192C15.6364 19.5242 15.546 19.0988 15.2249 22.2391C15.0101 24.3478 15.9182 30.9856 16.5382 35.1191C15.0792 34.2716 13.6574 33.3932 12.3133 32.5244C11.336 26.5161 11.8007 18.6341 11.8007 18.6341C11.8007 18.6341 8.4425 15.4003 5.6032 11.7315" transform="translate(575.48724 129.65808)" id="path100" fill="#5AB6E9" fill-rule="evenodd" stroke="none" />
        <path d="M0.0701462 3.08177C-0.550849 1.9099 3.10829 -0.00742355 4.85654 2.43395e-05C6.60372 0.00747223 6.575 0.877342 5.88269 2.05774C5.18833 3.23918 0.869793 4.59077 0.0700975 3.08177" transform="translate(591.51074 115.038315)" id="path102" fill="#592C26" fill-rule="evenodd" stroke="none" />
        <path d="M2.15127 0.0686617C8.12232 -0.889462 11.1732 8.42813 8.69338 12.5796C6.98129 15.4445 2.9478 15.3594 0.188241 14.1556C2.30125 13.3368 4.69392 11.277 4.12389 6.74474C3.69639 3.33758 1.80141 1.76159 0 1.0353C0.612527 0.554648 1.31862 0.20158 2.15127 0.0686617" transform="translate(595.51337 120.926895)" id="path104" fill="#FFFFFF" fill-rule="evenodd" stroke="none" />
        <path d="M7.10877 5.70946C7.67875 10.2417 5.28609 12.3015 3.17313 13.1204C1.93426 12.5801 0.950601 11.8166 0.54973 10.9914C-0.53391 8.76037 -0.16064 2.47455 2.98489 0C4.7863 0.726315 6.68127 2.30227 7.10877 5.70944" transform="translate(592.5285 121.96218)" id="path106" fill="#040606" fill-rule="evenodd" stroke="none" />
        <path d="M0.0470238 0.519294C0.452178 -0.742998 4.37935 0.537354 5.59481 1.79324C6.81028 3.04913 6.16801 3.63613 4.83873 3.96471C3.50946 4.29332 -0.476177 2.14629 0.0470238 0.519294" transform="translate(620.382 113.038795)" id="path108" fill="#592C26" fill-rule="evenodd" stroke="none" />
        <path d="M1.93966 0.0808436C7.17378 -0.947451 9.69511 8.09788 7.46196 12.1878C5.92 15.0111 2.39481 14.9909 0 13.8605C1.861 13.0278 3.98569 10.9797 3.55819 6.56552C3.23701 3.24768 1.60577 1.73873 0.0425455 1.05919C0.584878 0.579584 1.20802 0.224398 1.93966 0.0808436" transform="translate(619.6911 120.940216)" id="path110" fill="#FFFFFF" fill-rule="evenodd" stroke="none" />
        <path d="M6.25084 5.5063C6.67834 9.92051 4.55364 11.9686 2.69264 12.8013C1.61858 12.294 0.770007 11.5635 0.431881 10.7638C-0.479441 8.60401 -0.0552022 2.46391 2.73523 0C4.29847 0.67951 5.92975 2.18849 6.25089 5.50632" transform="translate(616.9984 121.999435)" id="path112" fill="#040606" fill-rule="evenodd" stroke="none" />
        <path d="M2.61947 4.13829C2.61947 4.13829 -0.136886 0.945942 0.971196 0.083521C2.07821 -0.777854 6.1489 5.28998 5.00684 6.04288C3.86366 6.79472 0.0322255 6.57564 0.000292074 5.28468C-0.0326637 3.99478 2.61947 4.13831 2.61947 4.13831" transform="translate(566.50964 131.326)" id="path114" fill="#E7665C" fill-rule="evenodd" stroke="none" />
        <path d="M6.45643 2.50305C9.90723 2.23295 11.5278 5.01907 12.268 4.20557C13.0081 3.39207 10.0103 -0.250088 6.31818 0.0136301C2.62813 0.277349 -0.57592 2.41587 0.0876707 3.80253C0.752284 5.18923 4.219 2.67851 6.45643 2.50305" transform="translate(605.8811 145.15747)" id="path116" fill="#5AB6E9" fill-rule="evenodd" stroke="none" />
        <path d="M7.93837 2.21044C12.1856 2.60708 14.238 -0.784122 15.1344 0.229303C16.0298 1.24168 12.2632 5.65801 7.71927 5.26456C3.17533 4.87111 -0.729503 2.186 0.115905 0.496234C0.963454 -1.19351 5.18412 1.9531 7.93837 2.21047" transform="translate(604.06 154.84955)" id="path118" fill="#5AB6E9" fill-rule="evenodd" stroke="none" />
        <path d="M20.7577 38.4361C20.7577 38.4361 21.031 34.0729 19.7581 30.3255C18.4853 26.578 22.2391 21.8682 26.5448 23.8695C30.8505 25.8698 37.9881 27.0109 40.8264 22.7381C43.6657 18.4653 39.2345 13.5396 27.3966 6.45941C15.5577 -0.619708 8.85928 -1.78202 6.01998 2.49076C3.18068 6.76353 14.8218 13.2142 14.0742 16.7192C13.3277 20.2242 10.5958 24.1354 8.00961 24.1524C5.4234 24.1705 0 26.0208 0 26.0208L20.7577 38.4361" transform="translate(361.79208 98.54143)" id="path120" fill="#33834D" fill-rule="evenodd" stroke="none" />
        <path d="M20.8992 0C20.8992 0 20.626 4.36317 21.8988 8.1106C23.1728 11.857 19.4179 16.5679 15.1132 14.5666C10.8075 12.5663 3.66988 11.4253 0.830585 15.698C-2.00871 19.9708 2.42251 24.8965 14.2615 31.9756C26.1004 39.0558 32.7977 40.2181 35.637 35.9454C38.4763 31.6726 26.8352 25.2219 27.5828 21.7169C28.3293 18.2109 31.0612 14.3007 33.6474 14.2837C36.2336 14.2656 41.657 12.4142 41.657 12.4142L20.8992 0" transform="translate(282.62015 226.40701)" id="path122" fill="#33834D" fill-rule="evenodd" stroke="none" />
        <path d="M4.8679e-05 20.7588C4.8679e-05 20.7588 4.3632 21.031 8.11065 19.7571C11.857 18.4842 16.5669 22.238 14.5666 26.5437C12.5653 30.8495 11.4253 37.9871 15.6981 40.8264C19.9708 43.6657 24.8955 39.2345 31.9756 27.3956C39.0558 15.5566 40.2171 8.85926 35.9454 6.01998C31.6715 3.17961 25.222 14.8218 21.7158 14.0742C18.2109 13.3266 14.2997 10.5948 14.2827 8.00961C14.2656 5.4234 12.4142 0 12.4142 0L0 20.7588" transform="translate(387.17242 199.97491)" id="path124" fill="#33834D" fill-rule="evenodd" stroke="none" />
        <path d="M38.4361 20.8993C38.4361 20.8993 34.0719 20.6259 30.3255 21.8999C26.578 23.1728 21.8682 19.419 23.8685 15.1132C25.8698 10.8075 27.0108 3.67096 22.7381 0.830585C18.4642 -2.00871 13.5396 2.42251 6.45941 14.2614C-0.619708 26.1004 -1.78202 32.7977 2.49076 35.6381C6.76353 38.4774 13.2131 26.8352 16.7192 27.5828C20.2242 28.3303 24.1354 31.0612 24.1524 33.6485C24.1705 36.2336 26.0208 41.657 26.0208 41.657L38.4361 20.8993" transform="translate(260.82117 121.70795)" id="path126" fill="#33834D" fill-rule="evenodd" stroke="none" />
        <path d="M42.0007 34.4685C42.0007 34.4685 38.6212 30.6392 34.475 28.5964C30.3277 26.5525 29.5387 19.5617 34.7472 17.6581C39.9569 15.7536 46.7946 10.8002 45.61 4.92592C44.4264 -0.94834 36.6975 -1.35668 21.0707 2.57473C5.44394 6.50507 -1.04818 11.0777 0.136447 16.9531C1.32 22.8273 16.2641 18.5397 18.5419 22.0521C20.8197 25.5646 21.7939 31.0507 19.6723 33.2009C17.5508 35.3522 14.5999 41.3615 14.5999 41.3615L42.0007 34.4685" transform="translate(299.48022 88.22)" id="path128" fill="#33834D" fill-rule="evenodd" stroke="none" />
        <path d="M3.74541 6.89302C3.74541 6.89302 7.12385 10.7224 11.2712 12.7652C15.4184 14.809 16.2075 21.7999 10.9978 23.7034C5.78927 25.608 -1.04845 30.5613 0.135133 36.4356C1.31976 42.3099 9.04757 42.7182 24.6744 38.7868C40.3011 34.8564 46.7933 30.2838 45.6097 24.4084C44.4261 18.5342 29.482 22.8218 27.2042 19.3094C24.9264 15.797 23.9512 10.3108 26.0738 8.15953C28.1953 6.00933 31.1463 0 31.1463 0L3.74543 6.89302" transform="translate(340.9577 233.6116)" id="path130" fill="#33834D" fill-rule="evenodd" stroke="none" />
        <path d="M6.89197 42.0005C6.89197 42.0005 10.7213 38.622 12.7652 34.4747C14.8079 30.3285 21.7988 29.5384 23.7033 34.748C25.6068 39.9566 30.5602 46.7943 36.4356 45.6108C42.3099 44.4261 42.7171 36.6983 38.7867 21.0715C34.8553 5.44475 30.2826 -1.04738 24.4084 0.136228C18.5341 1.31978 22.8218 16.2639 19.3083 18.5428C15.7958 20.8206 10.3097 21.7947 8.15952 19.6732C6.00825 17.5506 0 14.6007 0 14.6007L6.89192 42.0005" transform="translate(395.10757 137.98447)" id="path132" fill="#33834D" fill-rule="evenodd" stroke="none" />
        <path d="M34.4685 3.74541C34.4685 3.74541 30.6403 7.12385 28.5964 11.2712C26.5536 15.4174 19.5617 16.2075 17.6581 10.9978C15.7547 5.78927 10.8013 -1.04845 4.92595 0.135133C-0.948316 1.31976 -1.35668 9.04757 2.57475 24.6744C6.50617 40.3011 11.0778 46.7933 16.9531 45.6097C22.8274 44.4251 18.5397 29.482 22.0521 27.2031C25.5646 24.9253 31.0518 23.9512 33.202 26.0738C35.3522 28.1953 41.3615 31.1462 41.3615 31.1462L34.4685 3.74539" transform="translate(249.71494 179.46275)" id="path134" fill="#33834D" fill-rule="evenodd" stroke="none" />
        <path d="M10.8471 65.7499C36.9624 102.033 92.0544 83.4461 100.342 37.829C88.5356 10.1081 58.0019 -5.68562 27.8617 1.89647C19.9573 3.88399 12.8027 7.31454 6.57756 11.8149C-0.642977 24.4259 -5.1646 43.5045 10.8471 65.7499" transform="translate(300.4011 119.55209)" id="path136" fill="#67C653" fill-rule="evenodd" stroke="none" />
        <path d="M30.0962 53.935C14.0844 31.6896 18.606 12.6109 25.8266 0C5.77494 14.4975 -4.50928 40.2277 1.89561 65.6878C10.288 99.0512 44.1385 119.295 77.5019 110.903C110.866 102.51 131.109 68.66 122.716 35.2966C121.907 32.0745 120.852 28.9768 119.591 26.0141C111.303 71.6312 56.2114 90.2185 30.0962 53.935" transform="translate(281.1521 131.36697)" id="path138" fill="#44A94D" fill-rule="evenodd" stroke="none" />
        <path d="M26.3549 4.897C38.7479 11.6348 52.0681 27.7475 42.7973 34.2301C36.0372 38.9569 26.8228 21.2884 17.0947 15.5758C7.3656 9.86316 -0.88221 7.31948 0.075915 3.23171C1.03404 -0.856032 13.963 -1.84288 26.3549 4.897" transform="translate(344.6495 132.20175)" id="path140" fill="#9BD75E" fill-rule="evenodd" stroke="none" />
        <path d="M15.9357 3.52129C15.9963 9.52848 0.396077 8.05672 0.00683941 3.32986C-0.381279 -1.39699 15.8921 -0.872718 15.9357 3.52129" transform="translate(322.23492 130.25537)" id="path142" fill="#9BD75E" fill-rule="evenodd" stroke="none" />
        <path d="M0.0746979 12.3401C0.777623 18.4111 6.26905 22.7615 12.3401 22.0585C18.41 21.3546 22.7615 15.8631 22.0575 9.79319C21.3545 3.72216 15.8631 -0.629273 9.79317 0.0746979C3.72217 0.778693 -0.629298 6.26905 0.0746979 12.3401" transform="translate(322.89658 207.94276)" id="path144" fill="#33834D" fill-rule="evenodd" stroke="none" />
        <path d="M0.0278687 4.60777C0.290515 6.8739 2.34077 8.4988 4.6069 8.23613C6.87302 7.97348 8.49789 5.92322 8.23525 3.65602C7.97258 1.38988 5.92234 -0.233952 3.65622 0.0276497C1.38903 0.290322 -0.234803 2.34163 0.0278687 4.60777" transform="translate(312.98672 201.53067)" id="path146" fill="#33834D" fill-rule="evenodd" stroke="none" />
        <path d="M0.0297186 4.93333C0.311522 7.36112 2.50642 9.10083 4.93419 8.81903C7.3609 8.5383 9.10171 6.34236 8.81991 3.91564C8.53811 1.48787 6.34321 -0.251841 3.91651 0.0299376C1.48873 0.310669 -0.251014 2.50663 0.0297186 4.93333" transform="translate(290.5363 182.78581)" id="path148" fill="#33834D" fill-rule="evenodd" stroke="none" />
        <path d="M0.0612139 10.1317C0.63862 15.1159 5.14749 18.6889 10.1317 18.1115C15.1159 17.5341 18.6889 13.0252 18.1115 8.04104C17.5341 3.05682 13.0252 -0.516216 8.04104 0.0612138C3.05682 0.638644 -0.516217 5.14751 0.0612139 10.1317" transform="translate(356.17883 174.67052)" id="path150" fill="#44A94D" fill-rule="evenodd" stroke="none" />
        <path d="M0.0350003 5.81463C0.367844 8.67518 2.95514 10.7265 5.81572 10.3947C8.67523 10.0629 10.7265 7.47568 10.3948 4.61511C10.063 1.75454 7.47573 -0.295725 4.61512 0.0350002C1.75457 0.366796 -0.295701 2.95403 0.0350003 5.81463" transform="translate(347.34998 164.34552)" id="path152" fill="#44A94D" fill-rule="evenodd" stroke="none" />
        <path d="M0.0213213 3.52396C0.222292 5.25732 1.78975 6.49937 3.52417 6.2984C5.25753 6.0985 6.49957 4.52996 6.29859 2.7966C6.09762 1.06325 4.53017 -0.178798 2.79681 0.0211023C1.06346 0.222073 -0.179649 1.79061 0.0213213 3.52396" transform="translate(316.59927 161.95291)" id="path154" fill="#44A94D" fill-rule="evenodd" stroke="none" />
        <path d="M0.0320794 5.3291C0.336225 7.95039 2.70867 9.83051 5.32998 9.52637C7.95127 9.22222 9.83032 6.85085 9.52725 4.22847C9.2231 1.60718 6.85171 -0.271872 4.22935 0.0322741C1.60806 0.335349 -0.27102 2.70672 0.0320794 5.3291" transform="translate(377.8717 208.57645)" id="path156" fill="#33834D" fill-rule="evenodd" stroke="none" />
        <path d="M8.67 25.5396C8.67 25.5396 10.0344 23.0714 10.3289 20.5352C10.6224 17.9989 14.1126 16.2911 16.0703 18.6476C18.027 21.0052 21.8723 23.6425 24.7094 21.9368C27.5455 20.231 26.3237 16.1348 21.3799 8.73452C16.435 1.33424 12.8524 -1.19558 10.0152 0.510107C7.17911 2.21582 12.1814 9.19498 10.7777 11.0325C9.3729 12.869 6.69948 14.394 5.18626 13.6889C3.6741 12.9839 0 12.5639 0 12.5639L8.66998 25.5396" transform="translate(200.97166 261.3148)" id="path158" fill="#33834D" fill-rule="evenodd" stroke="none" />
        <path d="M17.5415 0C17.5415 0 16.1761 2.4671 15.8825 5.00442C15.589 7.54064 12.0979 9.24847 10.1412 6.8909C8.18346 4.5344 4.33924 1.89607 1.50206 3.60176C-1.33512 5.30854 -0.113252 9.40373 4.83054 16.804C9.77539 24.2053 13.3591 26.7341 16.1952 25.0295C19.0313 23.3227 14.029 16.3446 15.4338 14.507C16.8375 12.6705 19.512 11.1456 21.0241 11.8507C22.5363 12.5557 26.2104 12.9757 26.2104 12.9757L17.5415 0" transform="translate(121.301674 317.1392)" id="path160" fill="#33834D" fill-rule="evenodd" stroke="none" />
        <path d="M0 8.66893C0 8.66893 2.46817 10.0354 5.00544 10.3278C7.54169 10.6213 9.24952 14.1125 6.893 16.0692C4.53542 18.0259 1.89712 21.8711 3.60283 24.7083C5.30959 27.5444 9.40478 26.3236 16.8061 21.3798C24.2064 16.435 26.7362 12.8524 25.0295 10.0152C23.3237 7.17801 16.3457 12.1814 14.5081 10.7766C12.6716 9.3729 11.1466 6.69843 11.8517 5.18626C12.5567 3.67303 12.9768 0 12.9768 0L0 8.66893" transform="translate(189.1785 328.29004)" id="path162" fill="#33834D" fill-rule="evenodd" stroke="none" />
        <path d="M25.5397 17.5407C25.5397 17.5407 23.0715 16.1763 20.5353 15.8818C17.998 15.5883 16.2912 12.0981 18.6477 10.1404C21.0042 8.18375 23.6425 4.33844 21.9368 1.50129C20.2311 -1.33483 16.1349 -0.11296 8.73462 4.83081C1.33329 9.77567 -1.1955 13.3583 0.510217 16.1955C2.21593 19.0316 9.19509 14.0293 11.0316 15.433C12.8692 16.8378 14.393 19.5123 13.688 21.0244C12.984 22.5366 12.5629 26.2107 12.5629 26.2107L25.5397 17.5407" transform="translate(133.98781 249.56618)" id="path164" fill="#33834D" fill-rule="evenodd" stroke="none" />
        <path d="M19.6246 25.4453C19.6246 25.4453 18.7132 22.2784 16.8608 19.9411C15.0083 17.6037 16.4812 13.3096 20.0436 13.6404C23.6081 13.97 28.9624 12.9725 29.8971 9.22083C30.8308 5.46911 26.4389 3.0945 16.2419 1.06554C6.04486 -0.963455 0.995789 -0.0924902 0.0621144 3.65918C-0.871561 7.4109 9.02452 9.04323 9.38183 11.7209C9.73913 14.3986 8.78951 17.8663 6.95832 18.5331C5.12714 19.1999 1.74549 21.8882 1.74549 21.8882L19.6246 25.4453" transform="translate(170.02498 241.72433)" id="path166" fill="#33834D" fill-rule="evenodd" stroke="none" />
        <path d="M10.395 0C10.395 0 11.3063 3.16681 13.1588 5.50418C15.0112 7.84155 13.5384 12.1356 9.97493 11.806C6.41252 11.4752 1.05613 12.4727 0.122452 16.2244C-0.811223 19.9761 3.58066 22.3518 13.7777 24.3797C23.9747 26.4087 29.0238 25.5388 29.9574 21.7871C30.8922 18.0343 20.994 16.402 20.6377 13.7254C20.2804 11.0467 21.23 7.57893 23.0613 6.91217C24.8924 6.24542 28.2741 3.55819 28.2741 3.55819L10.395 2.43395e-05" transform="translate(148.5593 336.74313)" id="path168" fill="#33834D" fill-rule="evenodd" stroke="none" />
        <path d="M0 19.6246C0 19.6246 3.16684 18.7143 5.50421 16.8608C7.84158 15.0083 12.1357 16.4812 11.806 20.0446C11.4753 23.6071 12.4727 28.9624 16.2245 29.8971C19.9762 30.8308 22.3508 26.4379 24.3797 16.2419C26.4087 6.04486 25.5378 0.995802 21.7861 0.0621144C18.0344 -0.871549 16.4021 9.02455 13.7244 9.38186C11.0467 9.73916 7.57894 8.79058 6.91218 6.95832C6.24542 5.12714 3.55712 1.74548 3.55712 1.74548L0 19.6246" transform="translate(209.08868 297.6794)" id="path170" fill="#33834D" fill-rule="evenodd" stroke="none" />
        <path d="M25.4455 10.3942C25.4455 10.3942 22.2787 11.3055 19.9413 13.158C17.6039 15.0104 13.3099 13.5376 13.6395 9.97516C13.9703 6.41168 12.9728 1.05636 9.22108 0.122671C5.46936 -0.812063 3.09478 3.58088 1.06579 13.7769C-0.963187 23.9739 -0.0933298 29.0229 3.65944 29.9566C7.41116 30.8914 9.04348 20.9942 11.7211 20.6369C14.3988 20.2796 17.8666 21.2292 18.5333 23.0604C19.2001 24.8927 21.8873 28.2732 21.8873 28.2732L25.4455 10.3942" transform="translate(114.06965 276.21457)" id="path172" fill="#33834D" fill-rule="evenodd" stroke="none" />
        <path d="M0.72292 33.2948C5.91555 61.6676 43.171 66.0638 60.6152 41.7606C61.3968 22.3364 47.9638 4.68808 28.296 0.774726C23.1396 -0.251451 18.0193 -0.230179 13.1467 0.672646C5.45083 6.0269 -2.46093 15.8996 0.72292 33.2948" transform="translate(153.99052 262.01788)" id="path174" fill="#67C653" fill-rule="evenodd" stroke="none" />
        <path d="M20.4697 32.6222C17.2858 15.227 25.1976 5.35425 32.8935 0C17.1943 2.90631 4.0857 15.0632 0.780629 31.6768C-3.55169 53.4469 10.5853 74.6077 32.3554 78.939C54.1255 83.2713 75.2852 69.1344 79.6175 47.3642C80.0365 45.2619 80.2779 43.1648 80.3619 41.088C62.9177 65.3912 25.6623 60.995 20.4697 32.6222" transform="translate(134.24376 262.69052)" id="path176" fill="#44A94D" fill-rule="evenodd" stroke="none" />
        <path d="M15.2495 8.90071C20.6102 16.2552 23.9205 29.332 16.7245 30.5474C11.4765 31.4333 10.9906 18.5862 6.89752 12.5652C2.80552 6.54526 -1.29922 2.78291 0.389456 0.66459C2.07816 -1.45373 9.88785 1.5451 15.2495 8.90071" transform="translate(187.62779 274.83255)" id="path178" fill="#9BD75E" fill-rule="evenodd" stroke="none" />
        <path d="M9.32541 5.39727C7.69945 8.91607 -0.988598 3.74474 0.0928918 0.882061C1.17332 -1.98169 10.5143 2.82384 9.32541 5.39727" transform="translate(175.32933 267.3212)" id="path180" fill="#9BD75E" fill-rule="evenodd" stroke="none" />
        <path d="M0.381558 4.84471C-0.887089 8.57938 1.11106 12.6331 4.84468 13.9018C8.57831 15.1704 12.6331 13.1712 13.9017 9.43757C15.1693 5.70501 13.1712 1.65022 9.43861 0.38157C5.70499 -0.887078 1.65021 1.11107 0.381558 4.84471" transform="translate(151.49467 314.1012)" id="path182" fill="#33834D" fill-rule="evenodd" stroke="none" />
        <path d="M0.142191 1.80804C-0.331017 3.20323 0.415488 4.71647 1.80856 5.18968C3.20269 5.66289 4.71593 4.91747 5.19021 3.52332C5.66343 2.12918 4.91692 0.615961 3.52384 0.142727C2.12972 -0.331553 0.616483 0.41499 0.142191 1.80804" transform="translate(149.8401 306.139)" id="path184" fill="#33834D" fill-rule="evenodd" stroke="none" />
        <path d="M0.152487 1.93699C-0.354761 3.43 0.444914 5.05067 1.93689 5.5579C3.42991 6.06514 5.05162 5.26546 5.55781 3.77347C6.06505 2.28047 5.26643 0.65982 3.77339 0.152584C2.28143 -0.354651 0.659735 0.443953 0.152487 1.93699" transform="translate(141.83618 289.06677)" id="path186" fill="#33834D" fill-rule="evenodd" stroke="none" />
        <path d="M0.313505 3.97803C-0.728639 7.04276 0.912208 10.3723 3.97801 11.4134C7.04274 12.4555 10.3723 10.8147 11.4144 7.74887C12.4555 4.68307 10.8147 1.35354 7.74993 0.313517C4.68412 -0.728652 1.3546 0.912221 0.313505 3.97803" transform="translate(180.76712 303.48306)" id="path188" fill="#44A94D" fill-rule="evenodd" stroke="none" />
        <path d="M0.179638 2.28306C-0.417995 4.04195 0.524176 5.95289 2.28412 6.55054C4.04302 7.14817 5.95396 6.206 6.5516 4.44711C7.14923 2.68822 6.20705 0.77728 4.44817 0.179649C2.68823 -0.417981 0.777271 0.524198 0.179638 2.28306" transform="translate(179.78654 294.19406)" id="path190" fill="#44A94D" fill-rule="evenodd" stroke="none" />
        <path d="M0.108663 1.38266C-0.252899 2.44926 0.317082 3.60624 1.38368 3.96885C2.44921 4.33149 3.60726 3.76043 3.96882 2.6949C4.33146 1.62829 3.7604 0.471286 2.69487 0.108676C1.62827 -0.252863 0.471284 0.31712 0.108675 1.38266" transform="translate(163.2184 283.85745)" id="path192" fill="#44A94D" fill-rule="evenodd" stroke="none" />
        <path d="M0.16473 2.09268C-0.382909 3.7048 0.479513 5.45624 2.09164 6.00388C3.70484 6.55154 5.45519 5.68912 6.00392 4.07593C6.55159 2.46381 5.6881 0.712391 4.07597 0.164729C2.46384 -0.382932 0.712393 0.479487 0.16473 2.09268" transform="translate(185.49919 328.32422)" id="path194" fill="#33834D" fill-rule="evenodd" stroke="none" />
        <path d="M8.2989 17.2772C8.2989 17.2772 8.66788 15.3982 8.3308 13.6978C7.99477 11.9974 9.89506 10.1694 11.6497 11.2849C13.4033 12.4025 16.4361 13.3086 17.9164 11.6167C19.3945 9.92482 17.7536 7.53215 13.0215 3.77622C8.28931 0.0202991 5.44789 -0.869796 3.96972 0.82102C2.49054 2.51291 7.17378 5.98382 6.64739 7.46303C6.121 8.94228 4.70987 10.4831 3.58582 10.3417C2.4618 10.2002 0 10.6916 0 10.6916L8.29887 17.2772" transform="translate(219.89075 32.68794)" id="path196" fill="#33834D" fill-rule="evenodd" stroke="none" />
        <path d="M10.1428 2.43395e-05C10.1428 2.43395e-05 9.77377 1.87906 10.1109 3.57837C10.448 5.27878 8.5466 7.10782 6.79196 5.99124C5.0384 4.87467 2.00449 3.96863 0.526354 5.65945C-0.952855 7.35133 0.687993 9.74505 5.42016 13.501C10.1523 17.257 12.9927 18.146 14.473 16.4552C15.9511 14.7633 11.2679 11.2923 11.7953 9.81313C12.3206 8.33394 13.7318 6.79413 14.8558 6.93554C15.9798 7.07698 18.4416 6.58462 18.4416 6.58462L10.1428 0" transform="translate(178.5827 84.24199)" id="path198" fill="#33834D" fill-rule="evenodd" stroke="none" />
        <path d="M2.43395e-05 8.29779C2.43395e-05 8.29779 1.87906 8.66785 3.57946 8.33075C5.27985 7.99367 7.10784 9.89395 5.99127 11.6486C4.87467 13.4032 3.96865 16.436 5.66052 17.9152C7.35133 19.3934 9.74507 17.7536 13.501 13.0214C17.257 8.28927 18.1471 5.44783 16.4552 3.96865C14.7644 2.48947 11.2923 7.1727 9.8142 6.64631C8.33501 6.12099 6.79413 4.70879 6.93554 3.58474C7.077 2.46179 6.58568 0 6.58568 0L0 8.29779" transform="translate(225.37265 78.297554)" id="path200" fill="#33834D" fill-rule="evenodd" stroke="none" />
        <path d="M17.2759 10.1427C17.2759 10.1427 15.3979 9.77371 13.6975 10.1109C11.9972 10.4479 10.1681 8.54656 11.2847 6.79192C12.4013 5.03836 13.3073 2.00556 11.6154 0.526354C9.92457 -0.952855 7.53083 0.687968 3.77488 5.42015C0.0199827 10.1523 -0.870088 12.9938 0.821798 14.4729C2.51261 15.9521 5.98358 11.2689 7.46278 11.7942C8.94092 12.3217 10.4818 13.7328 10.3404 14.8558C10.1989 15.9798 10.6902 18.4416 10.6902 18.4416L17.2759 10.1428" transform="translate(174.42497 37.46911)" id="path202" fill="#33834D" fill-rule="evenodd" stroke="none" />
        <path d="M17.1748 15.3832C17.1748 15.3832 15.9284 13.5254 14.2461 12.4003C12.5627 11.2742 12.6223 8.19349 14.9937 7.66605C17.3651 7.13963 20.6191 5.38291 20.4437 2.76373C20.2682 0.144558 16.9355 -0.476488 9.92443 0.329587C2.91339 1.13669 -0.168381 2.74777 0.00708279 5.36694C0.183617 7.98611 6.91816 6.98547 7.70508 8.64119C8.492 10.2969 8.59834 12.7353 7.55408 13.5467C6.50875 14.358 4.8807 16.7975 4.8807 16.7975L17.1748 15.3832" transform="translate(194.00568 26.013016)" id="path204" fill="#33834D" fill-rule="evenodd" stroke="none" />
        <path d="M3.27573 1.41541C3.27573 1.41541 4.52203 3.2721 6.20436 4.39827C7.88775 5.52443 7.82819 8.60513 5.45677 9.1315C3.08537 9.65789 -0.168648 11.4157 0.00681506 14.0338C0.183325 16.653 3.51499 17.2751 10.526 16.468C17.5371 15.6608 20.6188 14.0498 20.4434 11.4306C20.2679 8.81246 13.5334 9.81315 12.7454 8.15741C11.9595 6.50062 11.8521 4.06221 12.8964 3.25086C13.9417 2.43947 15.5698 0 15.5698 0L3.27571 1.41541" transform="translate(202.5196 91.31899)" id="path206" fill="#33834D" fill-rule="evenodd" stroke="none" />
        <path d="M1.41432 17.1747C1.41432 17.1747 3.2721 15.9284 4.39827 14.2461C5.5244 12.5627 8.6051 12.6234 9.13149 14.9948C9.65788 17.3661 11.4146 20.6191 14.0338 20.4436C16.653 20.2682 17.2751 16.9354 16.4679 9.92547C15.6608 2.91336 14.0497 -0.168411 11.4306 0.00707671C8.81245 0.182516 9.81312 6.91818 8.15633 7.70507C6.50059 8.49197 4.06221 8.59833 3.25083 7.55407C2.43947 6.50874 0 4.88174 0 4.88174L1.41432 17.1747" transform="translate(232.74211 52.58259)" id="path208" fill="#33834D" fill-rule="evenodd" stroke="none" />
        <path d="M15.383 3.27476C15.383 3.27476 13.5252 4.52109 12.3991 6.20445C11.274 7.8868 8.19225 7.82722 7.66587 5.45582C7.13949 3.08442 5.38273 -0.169622 2.76355 0.00688808C0.145441 0.182376 -0.47664 3.51402 0.329411 10.5251C1.13653 17.5361 2.7476 20.6179 5.36678 20.4424C7.98596 20.267 6.98422 13.5313 8.64102 12.7455C10.2967 11.9575 12.7351 11.8512 13.5465 12.8965C14.3579 13.9418 16.7973 15.5678 16.7973 15.5678L15.383 3.27476" transform="translate(167.43626 61.097473)" id="path210" fill="#33834D" fill-rule="evenodd" stroke="none" />
        <path d="M3.12083 26.9252C12.3704 44.1822 37.3594 39.2841 43.5846 19.9556C40.0552 7.24041 27.7079 -1.37533 14.1845 0.181518C10.6391 0.588815 7.33514 1.66603 4.37354 3.26222C0.512298 8.32191 -2.54925 16.3453 3.12083 26.9252" transform="translate(191.32791 39.91522)" id="path212" fill="#67C653" fill-rule="evenodd" stroke="none" />
        <path d="M13.1019 23.663C7.43182 13.0831 10.4934 5.05965 14.3546 0C4.8137 5.13948 -1.13397 15.7183 0.181475 27.1414C1.90313 42.111 15.435 52.8493 30.4035 51.1266C45.3732 49.4039 56.1115 35.8731 54.3887 20.9034C54.2228 19.4583 53.9432 18.0525 53.5657 16.6934C47.3405 36.0219 22.3514 40.92 13.1019 23.663" transform="translate(181.34685 43.17744)" id="path214" fill="#44A94D" fill-rule="evenodd" stroke="none" />
        <path d="M11.3935 3.24427C16.3863 6.88322 21.2418 14.6461 16.8435 16.9271C13.6363 18.5903 10.6534 10.3882 6.75813 7.34689C2.86289 4.30659 -0.57193 2.7274 0.079931 1.00786C0.731768 -0.711626 6.40188 -0.395845 11.3935 3.24422" transform="translate(211.77574 46.10839)" id="path216" fill="#9BD75E" fill-rule="evenodd" stroke="none" />
        <path d="M6.90485 2.09862C6.58583 4.71039 -0.103005 3.17374 0.00121697 1.09904C0.104368 -0.975654 7.13987 0.188747 6.90485 2.09862" transform="translate(202.19978 43.92021)" id="path218" fill="#9BD75E" fill-rule="evenodd" stroke="none" />
        <path d="M0.000657167 4.76684C-0.0429349 7.44239 2.09023 9.64789 4.76685 9.69257C7.44239 9.73617 9.64789 7.60298 9.69258 4.92636C9.73617 2.25084 7.60298 0.0453201 4.92637 0.000657166C2.24977 -0.0429349 0.0453202 2.09023 0.000657167 4.76684" transform="translate(197.52351 77.93642)" id="path220" fill="#33834D" fill-rule="evenodd" stroke="none" />
        <path d="M0.000267735 1.77935C-0.01677 2.77893 0.779742 3.60202 1.77934 3.61903C2.77895 3.63497 3.60204 2.83849 3.618 1.83996C3.63499 0.840383 2.8385 0.0172689 1.8389 0.000231225C0.839326 -0.0156868 0.0172811 0.7808 0.000267735 1.77935" transform="translate(194.01566 74.20851)" id="path222" fill="#33834D" fill-rule="evenodd" stroke="none" />
        <path d="M0.000292074 1.90587C-0.0177678 2.97569 0.836134 3.85726 1.90593 3.87532C2.97572 3.89338 3.8573 3.03946 3.87538 1.96969C3.89344 0.899916 3.03954 0.0183398 1.96974 0.000279904C0.899952 -0.01778 0.0183763 0.836098 0.000292074 1.90587" transform="translate(185.3297 64.79307)" id="path224" fill="#33834D" fill-rule="evenodd" stroke="none" />
        <path d="M0.000584147 3.9139C-0.0366309 6.11195 1.71586 7.92189 3.91288 7.95806C6.11093 7.9953 7.92083 6.2428 7.95807 4.04577C7.99424 1.84772 6.24175 0.0377871 4.04473 0.000547639C1.84668 -0.0356209 0.0367526 1.71687 0.000584147 3.9139" transform="translate(214.01167 65.30003)" id="path226" fill="#44A94D" fill-rule="evenodd" stroke="none" />
        <path d="M0.000292073 2.24628C-0.0199097 3.50745 0.984994 4.54641 2.24622 4.56661C3.50744 4.58788 4.54634 3.58188 4.56764 2.32071C4.58784 1.06056 3.58291 0.0205304 2.32172 0.000328583C1.06049 -0.0209441 0.0215648 0.985056 0.000292073 2.24628" transform="translate(211.00998 60.10125)" id="path228" fill="#44A94D" fill-rule="evenodd" stroke="none" />
        <path d="M0.000170376 1.36029C-0.0115612 2.12489 0.596731 2.75441 1.36133 2.76716C2.12484 2.77889 2.75547 2.1706 2.76715 1.406C2.77993 0.642466 2.17057 0.0118777 1.40704 0.000194716C0.642465 -0.0126079 0.0128999 0.596756 0.000170376 1.36029" transform="translate(197.92276 57.181274)" id="path230" fill="#44A94D" fill-rule="evenodd" stroke="none" />
        <path d="M0.000292074 2.05905C-0.0188388 3.21501 0.903117 4.16676 2.05905 4.18589C3.21393 4.20502 4.16673 3.28411 4.18588 2.12818C4.20501 0.972243 3.2841 0.0194229 2.12817 0.000292074C0.972216 -0.0188388 0.0194229 0.903118 0.000292074 2.05905" transform="translate(221.74193 81.03871)" id="path232" fill="#33834D" fill-rule="evenodd" stroke="none" />
        <path d="M6.44852 13.428C6.44852 13.428 6.73563 11.968 6.47404 10.6462C6.21138 9.32435 7.68952 7.90363 9.05281 8.77138C10.4161 9.6391 12.7737 10.3431 13.9232 9.02872C15.0728 7.71434 13.7977 5.85337 10.1194 2.93431C6.44108 0.015273 4.23344 -0.675944 3.08389 0.638412C1.93434 1.95386 5.5744 4.65065 5.16497 5.80021C4.75663 6.94974 3.65919 8.14714 2.78613 8.03762C1.91201 7.92702 0 8.30985 0 8.30985L6.44852 13.428" transform="translate(135.65605 125.14991)" id="path234" fill="#33834D" fill-rule="evenodd" stroke="none" />
        <path d="M7.88362 0C7.88362 0 7.5965 1.46005 7.8581 2.78188C8.12076 4.10262 6.64261 5.52441 5.27933 4.65666C3.91605 3.78893 1.55847 3.08386 0.408916 4.39932C-0.740639 5.7137 0.535457 7.5736 4.21273 10.4927C7.89106 13.4117 10.0998 14.104 11.2482 12.7886C12.3978 11.4742 8.75774 8.77631 9.16717 7.62678C9.57657 6.47827 10.673 5.28089 11.5471 5.39042C12.4201 5.49995 14.3332 5.11818 14.3332 5.11818L7.88362 0" transform="translate(103.549034 165.21844)" id="path236" fill="#33834D" fill-rule="evenodd" stroke="none" />
        <path d="M0 6.44955C0 6.44955 1.46005 6.73666 2.78188 6.47509C4.1037 6.21241 5.52548 7.69055 4.65667 9.05383C3.78893 10.4171 3.08495 12.7747 4.40039 13.9243C5.71476 15.0738 7.57466 13.7988 10.4937 10.1204C13.4128 6.44211 14.1051 4.23446 12.7896 3.08493C11.4752 1.93538 8.77738 5.57543 7.62783 5.16603C6.47827 4.75662 5.28089 3.66027 5.39148 2.78719C5.50101 1.91413 5.11818 0 5.11818 0L0 6.44955" transform="translate(139.91502 160.59799)" id="path238" fill="#33834D" fill-rule="evenodd" stroke="none" />
        <path d="M13.4278 7.88271C13.4278 7.88271 11.9667 7.5956 10.6459 7.85824C9.32517 8.11984 7.9034 6.64171 8.77114 5.27948C9.63888 3.91513 10.3439 1.55863 9.0285 0.409074C7.71306 -0.74048 5.85315 0.534544 2.93409 4.21183C0.0161006 7.89015 -0.676176 10.0989 0.638194 11.2484C1.95256 12.3979 4.6515 8.75788 5.79998 9.16622C6.94954 9.57564 8.14692 10.672 8.0374 11.5461C7.92786 12.4192 8.30964 14.3322 8.30964 14.3322L13.4278 7.88268" transform="translate(100.317764 128.86617)" id="path240" fill="#33834D" fill-rule="evenodd" stroke="none" />
        <path d="M13.3491 11.9553C13.3491 11.9553 12.3804 10.5122 11.0724 9.63706C9.76439 8.76186 9.81118 6.36708 11.6541 5.95766C13.4969 5.54929 16.0257 4.18283 15.8896 2.14746C15.7524 0.112096 13.163 -0.370703 7.71413 0.256696C2.26523 0.883049 -0.130642 2.13573 0.00547639 4.17112C0.142666 6.20646 5.37676 5.42808 5.98822 6.71584C6.60074 8.00259 6.68369 9.89757 5.87125 10.5282C5.05881 11.1588 3.79441 13.0548 3.79441 13.0548L13.3491 11.9553" transform="translate(115.5362 119.962524)" id="path242" fill="#33834D" fill-rule="evenodd" stroke="none" />
        <path d="M2.54574 1.09954C2.54574 1.09954 3.51451 2.5426 4.82251 3.41778C6.13051 4.29298 6.08371 6.68777 4.24083 7.09719C2.39794 7.50556 -0.130849 8.87203 0.0052695 10.9074C0.142459 12.9428 2.73185 13.4256 8.18076 12.7982C13.6297 12.1718 16.0255 10.9191 15.8884 8.88373C15.7522 6.84839 10.5171 7.62677 9.90561 6.33901C9.29415 5.05225 9.2112 3.15727 10.0236 2.52666C10.8361 1.895 12.1005 0 12.1005 0L2.54575 1.09959" transform="translate(122.15403 170.7195)" id="path244" fill="#33834D" fill-rule="evenodd" stroke="none" />
        <path d="M1.09957 13.3481C1.09957 13.3481 2.54261 12.3793 3.41781 11.0714C4.293 9.76336 6.6878 9.81016 7.09614 11.653C7.50554 13.4959 8.87096 16.0247 10.9063 15.8886C12.9428 15.7514 13.4255 13.162 12.7981 7.71314C12.1718 2.26424 10.9191 -0.131616 8.88372 0.00556157C6.84835 0.141668 7.62678 5.37578 6.33897 5.9883C5.05226 6.59976 3.15619 6.68271 2.52666 5.87023C1.895 5.0578 0 3.79339 0 3.79339L1.09956 13.3481" transform="translate(145.64365 140.61311)" id="path246" fill="#33834D" fill-rule="evenodd" stroke="none" />
        <path d="M11.9557 2.54578C11.9557 2.54578 10.5126 3.51454 9.63746 4.82252C8.76227 6.13052 6.36747 6.08372 5.95805 4.24083C5.54865 2.39794 4.18323 -0.130861 2.14786 0.0052695C0.112497 0.142447 -0.370289 2.73183 0.256064 8.18074C0.883475 13.6296 2.13511 16.0255 4.17152 15.8883C6.20689 15.7522 5.42847 10.5181 6.71627 9.90558C8.00299 9.29412 9.898 9.21117 10.5286 10.0237C11.1592 10.8361 13.0552 12.1005 13.0552 12.1005L11.9557 2.54573" transform="translate(94.886284 147.22987)" id="path248" fill="#33834D" fill-rule="evenodd" stroke="none" />
        <path d="M2.42617 20.9274C9.61481 34.3391 29.0369 30.5331 33.8754 15.5104C31.1318 5.62704 21.5356 -1.06818 11.0249 0.140889C8.26959 0.45886 5.70145 1.29577 3.39919 2.5357C0.398255 6.46711 -1.98166 12.704 2.42617 20.9274" transform="translate(113.454735 130.7667)" id="path250" fill="#67C653" fill-rule="evenodd" stroke="none" />
        <path d="M10.1835 18.3917C5.7757 10.1683 8.15562 3.93141 11.1566 0C3.74141 3.99523 -0.880165 12.2175 0.140707 21.0948C1.4806 32.7296 11.9966 41.0752 23.6303 39.7364C35.2651 38.3976 43.6107 27.8805 42.273 16.2468C42.1432 15.1228 41.9263 14.0317 41.6328 12.9747C36.7943 27.9975 17.3722 31.8034 10.1836 18.3917" transform="translate(105.69736 133.30238)" id="path252" fill="#44A94D" fill-rule="evenodd" stroke="none" />
        <path d="M8.85535 2.52112C12.7357 5.34981 16.5087 11.3836 13.0909 13.1552C10.5983 14.4483 8.28005 8.07426 5.25252 5.71031C2.22501 3.3474 -0.444147 2.12023 0.0620292 0.783501C0.568205 -0.553201 4.97602 -0.307542 8.85535 2.52112" transform="translate(129.34758 135.5804)" id="path254" fill="#9BD75E" fill-rule="evenodd" stroke="none" />
        <path d="M5.36793 1.63126C5.1191 3.66131 -0.0788479 2.46712 0.000912732 0.85391C0.0817321 -0.758183 5.54979 0.146754 5.36793 1.63126" transform="translate(121.90424 133.8798)" id="path256" fill="#9BD75E" fill-rule="evenodd" stroke="none" />
        <path d="M0.000511129 3.70437C-0.0335154 5.7844 1.62433 7.4986 3.70435 7.5337C5.78438 7.56775 7.49859 5.90882 7.53262 3.82879C7.56664 1.74877 5.9088 0.034562 3.82877 0.000511129C1.74874 -0.0335155 0.0345255 1.62434 0.000511129 3.70437" transform="translate(118.27099 160.31773)" id="path258" fill="#33834D" fill-rule="evenodd" stroke="none" />
        <path d="M0.000158207 1.3837C-0.0115369 2.15998 0.607367 2.80016 1.38366 2.81292C2.15995 2.82569 2.80011 2.20676 2.81288 1.42941C2.82563 0.653126 2.20674 0.0129486 1.43044 0.000194716C0.653089 -0.0125592 0.013983 0.606346 0.000158207 1.3837" transform="translate(115.54366 157.42029)" id="path260" fill="#33834D" fill-rule="evenodd" stroke="none" />
        <path d="M0.000206886 1.48047C-0.0136179 2.31205 0.64889 2.99794 1.48047 3.01177C2.31206 3.02454 2.99797 2.362 3.01072 1.53044C3.02562 0.69885 2.36205 0.0129365 1.53045 0.000206886C0.698871 -0.013618 0.0129729 0.648881 0.000206886 1.48047" transform="translate(108.794136 150.10298)" id="path262" fill="#33834D" fill-rule="evenodd" stroke="none" />
        <path d="M0.000413771 3.0418C-0.0272359 4.74859 1.33392 6.15656 3.04175 6.18526C4.74959 6.2129 6.15647 4.85174 6.18519 3.1439C6.21284 1.43605 4.85167 0.0281 3.14384 0.000450282C1.436 -0.0282704 0.0291222 1.33397 0.000413771 3.0418" transform="translate(131.08514 150.49725)" id="path264" fill="#44A94D" fill-rule="evenodd" stroke="none" />
        <path d="M0.000243395 1.74529C-0.0157112 2.72576 0.765891 3.53395 1.7453 3.5499C2.72576 3.56584 3.5329 2.78532 3.54884 1.80485C3.56586 0.824404 2.78426 0.0172567 1.80378 0.000243395C0.823321 -0.0156747 0.0161858 0.765917 0.000243395 1.74529" transform="translate(128.75322 146.45544)" id="path266" fill="#44A94D" fill-rule="evenodd" stroke="none" />
        <path d="M0.000146037 1.05823C-0.0094194 1.65163 0.46379 2.14078 1.05823 2.15142C1.65268 2.16101 2.14184 1.68778 2.15142 1.09333C2.16098 0.498887 1.68778 0.00973581 1.09333 0.000146037C0.499958 -0.0094194 0.0107702 0.463814 0.000146037 1.05823" transform="translate(118.58077 144.18623)" id="path268" fill="#44A94D" fill-rule="evenodd" stroke="none" />
        <path d="M0.000231225 1.60063C-0.0146524 2.49815 0.702084 3.23933 1.5996 3.25318C2.49818 3.26806 3.23832 2.55238 3.2532 1.65382C3.2681 0.755252 2.55136 0.0151148 1.65384 0.000219055C0.755266 -0.0146523 0.015127 0.702071 0.000231225 1.60063" transform="translate(137.09357 162.72882)" id="path270" fill="#33834D" fill-rule="evenodd" stroke="none" />
        <path d="M5.97667 9.62065C5.97667 9.62065 5.84832 8.4711 5.34576 7.55338C4.84265 6.63461 5.60576 5.23621 6.8191 5.56055C8.03288 5.8849 9.94457 5.85725 10.49 4.61414C11.0346 3.37102 9.65501 2.28952 6.24668 0.985774C2.83845 -0.320089 1.04012 -0.3169 0.494804 0.926216C-0.0498777 2.16933 3.27785 3.31889 3.2434 4.26637C3.20894 5.21493 2.67511 6.35809 2.00218 6.48039C1.32926 6.60375 0 7.33325 0 7.33325L5.97667 9.62065" transform="translate(49.130444 229.96092)" id="path272" fill="#33834D" fill-rule="evenodd" stroke="none" />
        <path d="M4.62867 0C4.62867 0 4.7566 1.14953 5.2597 2.06832C5.76227 2.98604 4.99927 4.38549 3.78539 4.06114C2.57247 3.73572 0.660458 3.76444 0.11546 5.00758C-0.429537 6.25069 0.949916 7.33112 4.35825 8.63591C7.76701 9.94073 9.56523 9.93754 10.1106 8.6944C10.6552 7.45236 7.32707 6.30173 7.36153 5.35424C7.39651 4.40673 7.92939 3.26358 8.60316 3.14023C9.27609 3.01795 10.6045 2.28845 10.6045 2.28845L4.62868 0" transform="translate(33.96527 266.49435)" id="path274" fill="#33834D" fill-rule="evenodd" stroke="none" />
        <path d="M6.08487e-06 5.97632C6.08487e-06 5.97632 1.14934 5.84871 2.06737 5.34573C2.98584 4.84273 4.38486 5.60626 4.05957 6.81856C3.73523 8.03189 3.76383 9.94497 5.00674 10.4894C6.24997 11.035 7.33082 9.65465 8.6352 6.24646C9.93989 2.83823 9.93702 1.04 8.69368 0.494481C7.45087 -0.0500177 6.30101 3.27741 5.35352 3.24338C4.40603 3.20829 3.26243 2.67552 3.1395 2.00134C3.017 1.32925 2.28707 0 2.28707 0L0 5.97634" transform="translate(60.13508 255.22118)" id="path276" fill="#33834D" fill-rule="evenodd" stroke="none" />
        <path d="M9.62014 4.6284C9.62014 4.6284 8.47123 4.75709 7.55277 5.25902C6.6343 5.76306 5.23528 4.99953 5.56057 3.78618C5.88534 2.57283 5.85716 0.660818 4.61382 0.115272C3.37017 -0.429203 2.28932 0.950069 0.98494 4.35828C-0.319757 7.7665 -0.316885 9.56579 0.92592 10.1103C2.16926 10.6558 3.31859 7.32734 4.26662 7.36241C5.21412 7.39644 6.35813 7.93028 6.48064 8.60234C6.60314 9.27654 7.33296 10.6048 7.33296 10.6048L9.62014 4.62838" transform="translate(24.037277 240.22235)" id="path278" fill="#33834D" fill-rule="evenodd" stroke="none" />
        <path d="M11.8298 8.83232C11.8298 8.83232 10.7738 7.98799 9.59991 7.64558C8.42644 7.3021 7.90143 5.51662 9.1721 4.78181C10.4428 4.04808 11.9984 2.44551 11.4214 0.968421C10.8453 -0.508647 8.81235 -0.261966 4.91974 1.47566C1.0266 3.21328 -0.456755 4.70205 0.120255 6.17805C0.696834 7.65512 4.39505 5.85584 5.14986 6.66723C5.90339 7.47861 6.40766 8.86423 5.95273 9.52145C5.49792 10.1775 5.00364 11.879 5.00364 11.879L11.8298 8.83235" transform="translate(31.92255 228.90108)" id="path280" fill="#33834D" fill-rule="evenodd" stroke="none" />
        <path d="M1.21698e-05 3.04665C1.21698e-05 3.04665 1.05471 3.89099 2.22902 4.23342C3.40292 4.5769 3.92793 6.36235 2.65726 7.09611C1.3866 7.83092 -0.169068 9.43348 0.40751 10.9105C0.984089 12.3876 3.01658 12.1409 6.90961 10.4033C10.8028 8.66464 12.2857 7.17799 11.7091 5.69985C11.1321 4.22385 7.43387 6.02313 6.67992 5.21174C5.9251 4.40036 5.42127 3.01474 5.87609 2.35757C6.33101 1.70038 6.82571 0 6.82571 0L0 3.04667" transform="translate(49.970387 265.24167)" id="path282" fill="#33834D" fill-rule="evenodd" stroke="none" />
        <path d="M3.04689 11.8303C3.04689 11.8303 3.89102 10.7754 4.23408 9.60136C4.57725 8.42735 6.36303 7.90203 7.09699 9.1728C7.83107 10.4436 9.43362 11.9983 10.9112 11.4219C12.3875 10.8455 12.1412 8.81228 10.4036 4.92023C8.66552 1.02708 7.1776 -0.456365 5.70084 0.120018C4.22419 0.697448 6.02326 4.39598 5.21242 5.14994C4.40072 5.90391 3.01542 6.40902 2.35822 5.95388C1.70103 5.49875 0 5.00427 0 5.00427L3.04688 11.8303" transform="translate(59.09158 238.07169)" id="path284" fill="#33834D" fill-rule="evenodd" stroke="none" />
        <path d="M8.83211 0C8.83211 0 7.98851 1.05597 7.64492 2.22891C7.30229 3.4029 5.51608 3.92822 4.78243 2.65746C4.04804 1.38669 2.44549 -0.169086 0.96873 0.408368C-0.508772 0.984726 -0.26206 3.0169 1.47597 6.91002C3.21316 10.8031 4.70151 12.2866 6.17815 11.7092C7.65533 11.1328 5.85584 7.43427 6.66753 6.68033C7.47839 5.92637 8.86368 5.42232 9.5213 5.8764C10.1785 6.33048 11.8791 6.826 11.8791 6.826L8.8321 0" transform="translate(22.751213 256.11972)" id="path286" fill="#33834D" fill-rule="evenodd" stroke="none" />
        <path d="M4.38645 18.8516C12.8488 27.1154 26.3571 19.7566 26.4343 7.49018C22.0922 0.805588 13.4147 -1.91673 5.90596 1.43513C3.93705 2.31456 2.22848 3.53536 0.81244 4.99115C-0.493532 8.60781 -0.800964 13.7855 4.38645 18.8516" transform="translate(34.345013 236.57791)" id="path288" fill="#67C653" fill-rule="evenodd" stroke="none" />
        <path d="M8.24657 13.8605C3.05915 8.79442 3.36659 3.61665 4.67256 0C0.108621 4.6939 -1.39717 11.8687 1.43459 18.2109C5.1444 26.5225 14.89 30.2519 23.2008 26.5427C31.5124 22.8325 35.2426 13.0874 31.5328 4.77577C31.1747 3.97289 30.7584 3.21364 30.2944 2.49903C30.2172 14.7655 16.709 22.1242 8.24657 13.8605" transform="translate(30.484865 241.56908)" id="path290" fill="#44A94D" fill-rule="evenodd" stroke="none" />
        <path d="M6.92549 0.577722C10.4626 1.76768 14.6692 5.3588 12.5495 7.47073C11.0034 9.01162 7.79578 4.82817 4.99976 3.78284C2.20331 2.73858 -0.0622787 2.45147 0.00130825 1.34339C0.0640494 0.234267 3.38837 -0.613257 6.92547 0.577746" transform="translate(45.178337 239.56322)" id="path292" fill="#9BD75E" fill-rule="evenodd" stroke="none" />
        <path d="M4.17661 0.608345C4.46692 2.17049 0.334193 2.50017 0.0167699 1.28469C-0.299704 0.0713395 3.96467 -0.534839 4.17661 0.608345" transform="translate(39.21895 240.16533)" id="path294" fill="#9BD75E" fill-rule="evenodd" stroke="none" />
        <path d="M0.12205 3.76161C0.582718 5.31205 2.21197 6.19465 3.76221 5.73529C5.31202 5.27481 6.19519 3.64463 5.73452 2.09419C5.27417 0.544789 3.6446 -0.337831 2.09479 0.121575C0.544974 0.583099 -0.338611 2.21221 0.12205 3.76161" transform="translate(43.261368 260.2486)" id="path296" fill="#33834D" fill-rule="evenodd" stroke="none" />
        <path d="M0.0456061 1.40475C0.217558 1.98323 0.826039 2.31291 1.40517 2.14063C1.98335 1.96833 2.31321 1.36006 2.14126 0.781589C1.9692 0.203088 1.36072 -0.126565 0.782435 0.0457095C0.203411 0.216938 -0.126456 0.825205 0.0456 1.40475" transform="translate(40.097443 259.37482)" id="path298" fill="#33834D" fill-rule="evenodd" stroke="none" />
        <path d="M0.0489224 1.50345C0.233319 2.12343 0.88423 2.47647 1.50398 2.29249C2.12374 2.10853 2.4769 1.45665 2.29283 0.836695C2.10886 0.21779 1.45709 -0.135255 0.837334 0.0487277C0.2179 0.232686 -0.135577 0.884571 0.0489224 1.50345" transform="translate(33.403763 255.49994)" id="path300" fill="#33834D" fill-rule="evenodd" stroke="none" />
        <path d="M0.100175 3.08916C0.478217 4.36099 1.8162 5.08623 3.08889 4.70873C4.36083 4.33015 5.08661 2.99238 4.70856 1.71948C4.3301 0.44765 2.99212 -0.277591 1.71943 0.0999133C0.447056 0.478488 -0.277866 1.81623 0.100175 3.08916" transform="translate(50.333775 250.15721)" id="path302" fill="#44A94D" fill-rule="evenodd" stroke="none" />
        <path d="M0.0574473 1.77335C0.274701 2.50285 1.04227 2.91971 1.77262 2.70278C2.50329 2.48584 2.91908 1.71698 2.70182 0.987501C2.48499 0.256927 1.71732 -0.158864 0.987075 0.0570274C0.25641 0.275036 -0.159381 1.0428 0.0574473 1.77335" transform="translate(47.400677 248.06163)" id="path304" fill="#44A94D" fill-rule="evenodd" stroke="none" />
        <path d="M0.0347568 1.07502C0.166086 1.51739 0.631329 1.76838 1.07371 1.63758C1.51694 1.50571 1.76864 1.04099 1.63743 0.598626C1.50566 0.155188 1.04043 -0.0968463 0.597619 0.0350243C0.155249 0.166871 -0.0964634 0.631606 0.0347568 1.07502" transform="translate(39.192257 248.94391)" id="path306" fill="#44A94D" fill-rule="evenodd" stroke="none" />
        <path d="M0.0525124 1.62435C0.251475 2.29429 0.955562 2.67603 1.62476 2.4772C2.29438 2.27832 2.67572 1.57436 2.47719 0.905493C2.27822 0.235531 1.57414 -0.146206 0.904942 0.0526458C0.235734 0.251497 -0.146025 0.955462 0.0525124 1.62435" transform="translate(57.35505 258.21622)" id="path308" fill="#33834D" fill-rule="evenodd" stroke="none" />
        <path d="M6.01545 6.94225C6.01545 6.94225 5.68845 6.06705 5.11357 5.44814C4.53869 4.82817 4.86016 3.58291 5.8738 3.5978C6.88776 3.6127 8.37898 3.21285 8.56007 2.13135C8.74128 1.05097 7.44807 0.476701 4.52211 0.128987C1.59688 -0.219847 0.189568 0.137457 0.00836061 1.21789C-0.173157 2.29939 2.65902 2.54181 2.81895 3.29049C2.97889 4.03913 2.78737 5.03977 2.2848 5.26842C1.78212 5.49706 0.885677 6.33079 0.885677 6.33079L6.01545 6.94225" transform="translate(57.33147 68.78825)" id="path310" fill="#33834D" fill-rule="evenodd" stroke="none" />
        <path d="M2.56096 0C2.56096 0 2.8887 0.874105 3.46358 1.49408C4.03856 2.11301 3.71698 3.35931 2.70303 3.34442C1.68949 3.32955 0.19774 3.72937 0.0166421 4.8098C-0.164456 5.89128 1.12907 6.46448 4.05515 6.81326C6.98038 7.161 8.38727 6.8037 8.56879 5.72326C8.74989 4.64286 5.9174 4.40039 5.75746 3.65175C5.59752 2.90312 5.78979 1.90245 6.29246 1.6738C6.79503 1.44411 7.69105 0.610386 7.69105 0.610386L2.56095 0" transform="translate(53.172165 100.05809)" id="path312" fill="#33834D" fill-rule="evenodd" stroke="none" />
        <path d="M0 6.01656C0 6.01656 0.874871 5.68795 1.49462 5.11373C2.11395 4.53842 3.35974 4.86065 3.34516 5.87405C3.33027 6.88748 3.7299 8.37946 4.81118 8.56023C5.8916 8.74207 6.46521 7.44789 6.81379 4.52245C7.16227 1.59701 6.80508 0.19014 5.72423 0.00829978C4.64327 -0.17247 4.40071 2.65936 3.65218 2.81995C2.90321 2.97945 1.90298 2.78697 1.67371 2.28504C1.44518 1.78207 0.611469 0.885618 0.611469 0.885618L1.21697e-05 6.01656" transform="translate(71.54962 85.64272)" id="path314" fill="#33834D" fill-rule="evenodd" stroke="none" />
        <path d="M6.94218 2.56042C6.94218 2.56042 6.06785 2.88903 5.4481 3.46327C4.82824 4.03856 3.58256 3.71635 3.59744 2.70293C3.61244 1.6895 3.21239 0.19754 2.13196 0.0167699C1.05154 -0.165071 0.476981 1.12909 0.128494 4.05453C-0.219561 6.97997 0.138072 8.38686 1.21849 8.5687C2.29891 8.74947 2.5419 5.91762 3.29012 5.75812C4.03908 5.59753 5.03974 5.79003 5.26859 6.29194C5.49743 6.79494 6.33157 7.69139 6.33157 7.69139L6.94218 2.56042" transform="translate(40.65458 81.52845)" id="path316" fill="#33834D" fill-rule="evenodd" stroke="none" />
        <path d="M9.9446 6.57632C9.9446 6.57632 8.9518 6.12436 7.96528 6.08717C6.97864 6.051 6.2148 4.75575 7.06467 3.93055C7.91412 3.10534 8.81558 1.54323 8.07247 0.501065C7.32968 -0.541103 5.78731 0.0533643 3.08316 2.18234C0.378485 4.3102 -0.488402 5.76813 0.254281 6.81028C0.99739 7.85242 3.53756 5.7139 4.28779 6.19986C5.03792 6.68692 5.70638 7.67165 5.47998 8.27566C5.25444 8.87967 5.20285 10.3089 5.20285 10.3089L9.9446 6.57632" transform="translate(44.14897 69.94853)" id="path318" fill="#33834D" fill-rule="evenodd" stroke="none" />
        <path d="M0 3.73365C0 3.73365 0.992803 4.18454 1.97944 4.22176C2.96638 4.259 3.72949 5.55315 2.87993 6.37836C2.03006 7.20357 1.12902 8.7657 1.87182 9.80784C2.61451 10.85 4.1573 10.2555 6.86155 8.12766C9.5657 5.99871 10.4331 4.54078 9.69033 3.49863C8.94722 2.45649 6.40705 4.59503 5.65692 4.10904C4.90626 3.62306 4.23791 2.63728 4.46431 2.03327C4.69071 1.42926 4.74175 0 4.74175 0L0 3.73365" transform="translate(64.99266 95.483284)" id="path320" fill="#33834D" fill-rule="evenodd" stroke="none" />
        <path d="M3.73278 9.94495C3.73278 9.94495 4.18472 8.95171 4.22206 7.96486C4.25906 6.97802 5.55301 6.21451 6.37833 7.06522C7.20331 7.91382 8.76525 8.8156 9.80782 8.07227C10.8501 7.33001 10.256 5.78701 8.1272 3.08277C5.99826 0.378504 4.54065 -0.488178 3.4984 0.25408C2.45626 0.997409 4.59467 3.53787 4.10869 4.2876C3.62261 5.03835 2.63779 5.70618 2.03335 5.47968C1.42901 5.25422 0 5.20211 0 5.20211L3.73278 9.94493" transform="translate(67.15604 72.47652)" id="path322" fill="#33834D" fill-rule="evenodd" stroke="none" />
        <path d="M6.57637 0C6.57637 0 6.124 0.992175 6.087 1.97902C6.05042 2.96586 4.75614 3.72939 3.93073 2.87973C3.10531 2.03006 1.54348 1.12831 0.501229 1.87161C-0.541018 2.61494 0.0529993 4.15689 2.18194 6.86113C4.31079 9.56537 5.7684 10.4331 6.81064 9.68979C7.85289 8.94647 5.71395 6.40705 6.20046 5.6563C6.68644 4.90553 7.67136 4.2377 8.27571 4.46423C8.88015 4.69071 10.309 4.74177 10.309 4.74177L6.57637 2.43395e-05" transform="translate(41.621143 93.320335)" id="path324" fill="#33834D" fill-rule="evenodd" stroke="none" />
        <path d="M5.59324 16.784C13.8479 21.5821 22.9695 13.1556 20.6085 3.53816C15.8904 -0.837766 8.55993 -1.25568 3.34381 2.85016C1.97595 3.92737 0.879678 5.21944 0.0585121 6.64013C-0.250192 9.72828 0.531623 13.8426 5.59324 16.784" transform="translate(48.064217 74.584984)" id="path326" fill="#67C653" fill-rule="evenodd" stroke="none" />
        <path d="M7.32356 13.2458C2.26194 10.3044 1.48013 6.19009 1.78883 3.10197C-0.857243 7.67675 -0.619677 13.5903 2.84884 17.9961C7.39417 23.7704 15.7589 24.7657 21.5329 20.2207C27.3068 15.6757 28.303 7.31095 23.7577 1.53663C23.3187 0.979397 22.8435 0.467902 22.3388 0C24.6999 9.61748 15.5783 18.0439 7.32356 13.2458" transform="translate(46.333916 78.12317)" id="path328" fill="#44A94D" fill-rule="evenodd" stroke="none" />
        <path d="M5.27749 0.0272968C8.28119 0.261248 12.2831 2.24134 11.0407 4.31392C10.1351 5.82395 6.79784 3.18245 4.40273 2.91662C2.00794 2.65075 0.178129 2.87409 0.00830585 1.99359C-0.160781 1.11308 2.27379 -0.206606 5.27749 0.0273454" transform="translate(55.828712 76.733635)" id="path330" fill="#9BD75E" fill-rule="evenodd" stroke="none" />
        <path d="M3.17285 0.27584C3.70827 1.44239 0.538354 2.51537 0.0502429 1.62742C-0.437862 0.73946 2.78151 -0.577018 3.17285 0.27584" transform="translate(51.241886 78.69911)" id="path332" fill="#9BD75E" fill-rule="evenodd" stroke="none" />
        <path d="M0.331535 3.57014C0.997865 4.69204 2.44846 5.0621 3.57047 4.39642C4.69279 3.72964 5.06254 2.27917 4.39578 1.15727C3.72998 0.0353653 2.27938 -0.334692 1.15738 0.330993C0.0346351 0.997748 -0.334693 2.44824 0.331535 3.57014" transform="translate(58.6607 93.59761)" id="path334" fill="#33834D" fill-rule="evenodd" stroke="none" />
        <path d="M0.123754 1.33286C0.372595 1.75184 0.913869 1.89009 1.33295 1.64124C1.75204 1.39239 1.88996 0.85113 1.64155 0.432149C1.3924 0.0131677 0.851122 -0.125081 0.431923 0.123767C0.0132589 0.372614 -0.125087 0.913877 0.123748 1.33286" transform="translate(55.694122 93.9452)" id="path336" fill="#33834D" fill-rule="evenodd" stroke="none" />
        <path d="M0.132315 1.42736C0.399015 1.87613 0.97889 2.02394 1.42755 1.75704C1.87619 1.49118 2.02401 0.910555 1.75773 0.462878C1.49145 0.0141048 0.911154 -0.133709 0.463034 0.132152C0.0143846 0.399059 -0.133964 0.978609 0.132315 1.42736" transform="translate(49.70263 92.216255)" id="path338" fill="#33834D" fill-rule="evenodd" stroke="none" />
        <path d="M0.272195 2.93155C0.819639 3.85351 2.01013 4.15658 2.93146 3.60999C3.8528 3.06235 4.15693 1.8713 3.60938 0.950385C3.06237 0.0284286 1.87188 -0.274647 0.950433 0.271946C0.0286719 0.819609 -0.274933 2.01064 0.272195 2.93155" transform="translate(62.113956 84.41775)" id="path340" fill="#44A94D" fill-rule="evenodd" stroke="none" />
        <path d="M0.15657 1.68223C0.470166 2.21074 1.15352 2.38516 1.68277 2.07145C2.2115 1.75773 2.38558 1.07397 2.07155 0.545435C1.75753 0.0158572 1.07461 -0.157488 0.545351 0.156247C0.0161979 0.469934 -0.157878 1.1537 0.15657 1.68223" transform="translate(59.227016 83.58384)" id="path342" fill="#44A94D" fill-rule="evenodd" stroke="none" />
        <path d="M0.0946501 1.01886C0.284893 1.34002 0.699097 1.44528 1.01971 1.25495C1.34001 1.06459 1.4455 0.650945 1.25568 0.330857C1.065 0.00969924 0.651342 -0.0955686 0.331041 0.0947654C0.00989399 0.285124 -0.0955994 0.698771 0.094644 1.01886" transform="translate(52.881508 86.015656)" id="path344" fill="#44A94D" fill-rule="evenodd" stroke="none" />
        <path d="M0.143444 1.54187C0.43141 2.02679 1.05733 2.18631 1.54256 1.89918C2.02684 1.611 2.18677 0.984645 1.89848 0.499752C1.61063 0.014835 0.984695 -0.144687 0.499463 0.143494C0.0150844 0.430603 -0.144747 1.05698 0.143432 1.54187" transform="translate(69.00438 89.59316)" id="path346" fill="#33834D" fill-rule="evenodd" stroke="none" />
      </g>
    </g>
  </g>
</svg>